<svg xmlns="http://www.w3.org/2000/svg" height="248" width="248" viewBox="0 0 250 250">
 <defs>
  <circle id="b" cx="90" cy="90" r="90"/>
 </defs>
 <g transform="matrix(1.3778 0 0 1.3778 -5.5178 -5.5178)">
  <use transform="translate(5,5)" width="248" height="248" fill="#ffffff" fill-rule="evenodd"/>
  <path d="m95 5c-49.714 0-90 40.286-90 90s40.286 90 90 90 90-40.286 90-90-40.286-90-90-90zm0 1.25c49.036 0 88.75 39.75 88.75 88.75 0 49.036-39.714 88.75-88.75 88.75s-88.75-39.714-88.75-88.75 39.714-88.75 88.75-88.75zm0 4.9297c-46.286-1e-3 -83.82 37.534-83.82 83.82s37.534 83.82 83.82 83.82 83.82-37.534 83.82-83.82-37.534-83.82-83.82-83.82zm0 20.25c35.107 0 63.57 28.463 63.57 63.57s-28.463 63.57-63.57 63.57-63.57-28.463-63.57-63.57 28.463-63.57 63.57-63.57zm-0.66016 1.8438c-0.08714 0.0055-0.17602 0.02013-0.26758 0.04687-1.321 0.393-2.1422 3.322-2.5352 4.5a29.659 29.659 0 0 0-0.75 2.5371c-0.107 0.429-0.17816 0.85616-0.28516 1.2852-0.893 0.107-1.7867 0.28684-2.6797 0.46484l-0.64258-0.96484c-0.536-0.857-1.0716-1.7143-1.6426-2.5723a22.944 22.944 0 0 0-1.5-2.1406c-0.393-0.5-1.036-1.6095-1.75-1.6445-0.786-0.036-0.89369 0.678-0.92969 1.25-0.071 0.964-0.39147 1.8572-0.60547 2.7852-0.393 1.679-0.286 3.3591 0 5.0371 0.071 0.357-0.179 0.60726-0.5 0.82227a22.32 22.32 0 0 0-2.252 1.1777c-0.393-0.357-0.714-0.78684-1-1.2148-1-1.393-1.7508-2.7127-2.9648-3.9277-0.75-0.75-2.6413-3.0714-3.8203-2.1074-1.035 0.857-0.35827 2.8209-0.32227 3.9629 0.036 1.786 0.07184 3.4305 0.71484 5.1445 0.286 0.75 0.64326 1.4646 1.0723 2.1426 0.357 0.536-0.0015 0.57089-0.39453 0.96289-0.25 0.286-0.53431 0.57227-0.82031 0.82227-0.893 0.821-3.3934-1.4644-4.1074-2.1074-1.143-1.036-2.1791-2.1788-3.2871-3.2148-0.857-0.785-2.9277-1.9986-4.1777-1.3906-0.822 0.428-0.07227 1.678 0.17773 2.25 0.679 1.678 0.75111 3.5699 1.5371 5.2129 0.357 0.714 0.67858 1.4636 1.1426 2.1426 0.179 0.285 1.1437 1.1782 1.1797 1.5352h-3.3945c-0.679-0.107-1.3216-0.28431-1.8926-0.57031-2.786-1.286-5.1434-3.3563-8.3574-1.8203-0.679 0.321-0.893 0.60716-0.5 1.2852 0.428 0.679 0.89453 1.3207 1.3945 1.9277 1.142 1.321 2.2137 2.4276 3.4277 3.6426l0.10742 0.10742c1.143 1.321 2.9282 3.6067 4.0352 6.4277-0.786 0.072-2.4294-0.53389-2.8574-0.71289-3.143-1.071-6.1419-2.6784-9.4629-3.1074-0.75-0.107-3.5015-0.60631-3.3945 0.67969 0.107 1.25 1.107 2.3203 2 3.0703 1.857 1.607 4.2515 1.786 6.1445 3.25 2.035 1.607 4.0347 3.0353 6.4277 4.0703 0.607 0.25 1.8574 0.53584 2.1074 1.2148v0.35742c-0.25 0.286-1.3932 0.71442-2.5352 0.85742-1.822 0.214-3.8594-0.28531-5.6094-0.82031-3.321-1.072-6.9985-2.9305-10.605-2.3945-0.535 0.071-3.071 0.42927-3 1.3223 0.036 0.714 1.0352 1.2856 1.5352 1.6426 1.536 1.036 3.1782 1.857 4.7852 2.75 3.107 1.75 6.4648 3.6062 9.9648 4.2852 1.036 0.178 5.4286 0.32184 5.3926 1.7148 0 0.5-1.0363 0.71331-1.5723 0.82031-0.392 0.108-0.78473 0.14369-1.1777 0.17969-4.786 0.429-9.6779-0.17984-14.463-0.46484-2.25-0.143-5.8928-0.82031-7.4648 1.1797-1.071 1.357 1.4646 1.8917 2.3926 2.1777 1.072 0.321 3.9989 0.46527 3.9629 1.8223-0.035 0.857-0.10673 1.6413 0.07227 2.5703-4.464 0.25-3.8212 3.0358-3.7852 4.4648 1.429 30.964 26.964 55.607 58.25 55.607 31.536 0 57.214-25.001 58.322-56.287 0.107 0.215-0.17927-2.1422-2.3223-2.2852-0.428-0.036-0.24973-0.10547-0.67773-0.10547-0.679 0-0.60742-0.50138-0.60742-1.1094 0-0.821-1.6e-4 -1.1422 0.46484-1.7852a15.168 15.168 0 0 0 2.2852-1.1426c1.072-0.679 3.465-1.9996 3.75-3.3926 0.072-0.286-0.14243-0.429-0.35743-0.5 0 0-0.0347-0.03516-0.17773-0.03516-1.75 0.143-3.5-0.35827-5.25-0.32227-0.786 0.036-1.6073 0.25127-2.3223 0.32227-0.143-0.178-0.14257-0.10742-0.39257-0.35742-0.535-0.036-11.642 0.42926-11 0.57227-1.035 0.142-1.4286 0.60562-2.3926 0.39062-0.536-0.107-2.6417-0.42689-2.9277-0.96289v-0.60742c0.25-0.286 1.0697-0.21484 1.9277-0.46484 1.642-0.536 3.2142-1.2137 4.7852-1.9277 2.822-1.25 5.6786-1.6083 8.6426-2.3223 1.464-0.357 2.7868-0.822 3.9648-1.75 0.572-0.465 1.0716-0.92858 1.6426-1.3926 0.5-0.393 1.3928-0.67858 1.4648-1.3926 0.071-0.75-0.53627-0.786-1.0723-0.75-0.786 0.036-1.6427-0.07169-2.4277-0.17969-1.858-0.25-3.7153-0.14047-5.5723 0.14453-1.678 0.25-3.3199 0.64258-4.9629 0.89258-1.857 0.322-3.643 0.28558-5.5 0.39258-0.5 0.036-2.5727 0.17942-2.9297-0.39258v-0.25c0.357-0.428 2.1428-0.71442 2.4648-0.85742 1.678-0.643 3.0008-1.8566 4.2148-3.1426 0.964-1.036 1.7864-2.1788 3.1074-2.7148 1.464-0.607 2.9283-1.2492 4.3203-2.0352a12.317 12.317 0 0 0 1.8926-1.3926c0.429-0.357 1.2496-0.85869 1.3926-1.4297 0.536-1.822-6.428-0.85573-7.25-0.67773-2.5 0.607-6.2856 2-8.8926 2 1.179-2.643 2.8937-4.7856 3.9297-5.8926 0.857-0.893 1.9284-1.8583 2.6074-2.5723 0.821-0.893 2.2132-1.429 2.2852-2.75 0.143-2.893-3.9286-1.643-5.3926-1-1.25 0.571-2.4651 1.2857-3.7871 1.6777-0.678 0.215-1.3923 0.28627-2.0703 0.32227h-2.75c1.714-2.143 1.3923-5.036 2.3203-7.5a5.554 5.554 0 0 1 0.92969-1.6074c0.25-0.322 1.1788-0.822 1.2148-1.25 0.071-0.822-3.0723 0.25042-3.3223 0.35742-2.822 1.214-4.7863 3.6443-7.0723 5.5723-0.286 0.25-0.56947 0.46373-0.85547 0.67773-0.143 0.107-0.25126 0.14342-0.32226 0.10742a37.597 37.597 0 0 0-1.6777-1.7148c-0.036-0.179 0.14147-0.28558 0.35547-0.64258 0.857-1.464 1.214-3.1793 1.5-4.8223 0.286-1.535 0.5-3.1055 1-4.6055 0.786-2.285-1.4629-1-2.4629-0.25-1.393 1-2.7136 2.1055-3.8926 3.3555a30.377 30.377 0 0 0-1.75 1.9297c-0.25 0.286-0.32226 0.60631-0.57226 0.57031-0.179-0.107-0.39327-0.21331-0.57227-0.32031-0.286-0.214-0.53447-0.42942-0.85547-0.60742-0.607-0.393-0.28711-1.6073-0.28711-2.3223 0-0.857 6.9e-4 -1.7142-0.0703-2.5352-0.143-1.75-0.572-3.5703-1.5-5.0703-1.393-2.214-5.679 4.929-6.25 6-0.286 0.572-0.14342 0.78558-0.85742 0.64258a18.08 18.08 0 0 0-1.3574-0.25c-0.858-0.143-1.7146-0.03558-2.1426-0.89258-0.322-0.643-0.42858-1.357-0.64258-2-0.286-0.928-0.78684-1.8227-1.2148-2.6797-0.46875-0.90469-1.2828-3.0941-2.5898-3.0117zm0.24023 1.3262c0.69-0.08728 1.1793 1.3734 1.5273 2.1504 0.75 1.5 1.5363 3.1786 1.8223 4.8926h-0.14453c-0.322-0.036-0.64284-0.03627-0.96484-0.07227-0.571-0.035-1.1409-0.07031-1.7129-0.07031-0.643 0-1.2496 0.03531-1.8926 0.07031-0.285 0-0.53627 0.03627-0.82227 0.07227-0.179 0-0.35616 0.03711-0.53516 0.03711 0.072-2.25 1.0709-4.5375 1.9629-6.3945 0.277-0.4555 0.52977-0.65645 0.75977-0.68555zm13.635 2.1152c0.715-0.035 0.64174 0.89147 0.92774 1.3555 0.5 2.215 1.036 4.4664 0.75 6.8594l-0.21289-0.10938a42.799 42.799 0 0 0-2.5723-1.1055l-0.32226-0.10742a32.601 32.601 0 0 0-2.6426-0.85742c-0.036 0-0.10658-0.03516-0.14258-0.03516 1.071-2.035 2.3938-4.285 4.2148-6zm-25.414 0.24219c0.0335 0.0028 0.06505 0.01622 0.0918 0.04297a61.733 61.733 0 0 1 3.8926 5.5c-0.786 0.214-1.5705 0.42969-2.3555 0.67969-0.072 0.035-0.14284 0.03431-0.21484 0.07031-0.643 0.214-1.3218 0.46484-1.9648 0.71484-0.071 0.036-0.10769 0.03431-0.17969 0.07031-1.071-2.179-0.03431-4.7146 0.42969-6.8926 0.08025-0.10725 0.20028-0.19389 0.30078-0.18555zm-11.752 2.9492c0.11162 0.01338 0.23675 0.09417 0.34375 0.20117 2.5 1.357 4.2856 4.2492 5.6426 6.5352-0.036 0.036-0.07047 0.07227-0.10547 0.07227a47.62 47.62 0 0 0-1.7148 1.1426c-0.178 0.143-0.35827 0.28473-0.57227 0.42773-0.393 0.321-0.82089 0.60869-1.2129 0.92969-0.108 0.072-0.21527 0.143-0.32227 0.25-1-0.857-1.5013-2.428-1.8223-3.75 0.035-1.964-0.286-3.7504-0.5-5.6074 0.0535-0.1605 0.15205-0.21455 0.26367-0.20117zm48.559 1.5586c0.107 0 0.28627-0.0013 0.32227 0.17773-0.108 2.536-0.64327 5.4277-1.3223 7.1777a4.926 4.926 0 0 1-0.82226 1.3594c-0.572-0.5-1.143-0.96484-1.75-1.4648a5.11 5.11 0 0 0-0.53516-0.39453 17.484 17.484 0 0 0-1.3203-0.92773c-0.108-0.072-0.18011-0.14173-0.28711-0.17773 0.036-0.285 0.35784-0.57227 0.46484-0.82227 1.572-1.893 3.25-3.5347 5.25-4.9277zm-24.537 1.6777c10.679 0 20.143 5.1434 26.072 13.107h-1.9629c-5.679-7.036-14.359-11.535-24.109-11.535-9.75 0-18.428 4.4992-24.107 11.535h-1.9277c5.893-7.929 15.357-13.107 26.035-13.107zm0 3.1074c8.786 0 16.679 3.857 22.072 10h-44.143c5.393-6.143 13.285-10 22.07-10zm-34.494 0.22266c0.15612 9e-3 0.33433 0.08127 0.42383 0.13477 2.964 0.964 3.964 4.25 6.75 5.5 0.571 0.179 1.25 0.57158 1.75 0.89258-0.893 1-1.75 2.0718-2.5 3.2148h-1.5c-2.429-0.821-3.571-3.357-4-5.75-0.357-1.714-0.60784-2.571-1.2148-3.75 0-0.1965 0.13489-0.25119 0.29102-0.24219zm68.316 0.84766 0.0723 0.21484c-0.893 2.214-1.2144 4.6087-1.8574 6.9297-0.357 0.715-0.32211 1.2852-1.0371 1.7852h-2.9277c-0.536-0.786-1.143-1.5352-1.75-2.2852-0.072-0.107-0.14189-0.17816-0.21289-0.28516 2.428-2.143 4.8559-4.9304 7.7129-6.3594zm10.395 7.0723c0.321 0.107 0.92758 0.0011 0.89258 0.53711-0.215 0.428-0.35674 0.74847-0.67774 1.1055l-3 2.7852-2.1797-2.0703c1.322-1.071 3.2498-2.0364 4.9648-2.3574zm-87.652 0.19531c1.4431 0.06881 3.4998 1.2864 4.3301 1.9824l-2.1445 2.0723c-1.107-0.893-3.2485-2.6057-3.3555-3.6777 0.27675-0.2945 0.68889-0.39989 1.1699-0.37695zm8.5078 3.0195h4.1777v1.8574h-4.1777zm65.678 0h4.1797v1.8574h-4.1797zm-68.928 0.03516h0.85742v1.8574h-0.14258l-0.28711 0.25c0.25 0.286 0.53627 0.64231 0.82227 1.0703l-1.5352 1.0723c-0.678-1-1.2148-1.5-1.2148-1.5l-0.78516-0.67773zm9.8223 0h4.1777v1.8574h-4.1777zm6.5703 0h4.1797v1.8574h-4.1797zm6.5723 0h4.1777v1.8574h-4.1777zm6.5723 0h4.1777v1.8574h-4.1777zm6.5703 0h4.1797v1.8574h-4.1797zm6.5352 0h4.1797v1.8574h-4.1797zm6.5723 0h4.1777v1.8574h-4.1777zm6.5723 0h4.1777v1.8574h-4.1777zm6.5723 0h4.1777v1.8574h-4.1777zm12.818 0h0.96485l2.5 2.1426-0.75 0.71484s-0.57311 0.53516-1.2871 1.5352l-1.5352-1.1055c0.286-0.429 0.57227-0.78711 0.82227-1.0371l-0.46485-0.39258h-0.25zm-72.605 5.2871a21.52 21.52 0 0 1 1.5703 4.1777l-1.8203 0.46289c-0.357-1.357-0.82269-2.6422-1.4297-3.7852zm71.178 0.17773 1.6426 0.89258a19.225 19.225 0 0 0-1.5371 3.75l-1.7852-0.53516a18.73 18.73 0 0 1 1.6797-4.1074zm-86.115 1.6074c0.3215 1.25e-4 0.67 0.05231 0.9375 0.07031 1.75 0.214 5.929 1.3943 6.25 1.5723 1.75 0.607 5.5712 2.2492 6.7852 2.7852 0.214 0.928 0.35742 1.8934 0.35742 2.8574v1.8926c-1.143-0.072-1.7871-0.46289-2.0371-0.46289-3.214-1.429-5.5002-4.3583-8.7852-5.3223-1.715-0.571-3.1782-1.7136-4.2852-3.1426 0.1605-0.1965 0.45584-0.25012 0.77734-0.25zm100.65 0.28516c0.535 0.071 1.035 0.07184 1.5 0.21484l-0.10742 0.35547c-2.285 1.858-5.0002 2.929-7.5352 4.25-1.5 1.322-2.6797 2.8227-4.1797 4.1797-0.857 0.464-2.5353 1.2144-3.5703 1.3574v-3.3223c0-1.5 0.32116-2.929 0.78516-4.25 0.786-0.179 2.0718 0.03627 2.4648-0.17773 1.857-0.286 3.4284-1.2871 5.3574-1.5371v-0.10547a32.797 32.797 0 0 1 5.2852-0.96484zm-83.645 4.5703c0.214 1.286 0.28516 2.6793 0.28516 4.0723v0.32227h-1.8555v-0.32227c0-1.286-0.10716-2.5712-0.28516-3.7852zm66.859 0.10938 1.8574 0.32031a18.005 18.005 0 0 0-0.32226 3.4297v0.64062h-1.8574v-0.64062c0-1.25 0.10826-2.536 0.32226-3.75zm-55.287 2.2129c0.607 0.214 0.71426 0.82211 1.0723 1.2871 0.214 0.678 0.28362 1.2852 0.14062 2.0352 0.608-0.178 1.0363 0.21373 1.3223 0.67773 0.25 0.321 0 0.71527 0 1.0723-0.143 0.286-0.49889 0.286-0.71289 0.5 0.107 0.5 0.78431 0.679 0.57031 1.25l-0.21484 0.14258-4.4648-0.03711c-0.392-0.285-1.56e-4 -0.89089 0.21484-1.2129 1.107-0.143 0.10716-1.5718 1.0352-1.9648 0.322-0.143 0.46638-0.39189 0.85938-0.46289-0.25-1.072-0.21527-2.2511 0.17773-3.2871zm21.422 0.89062c0.26988-0.01543 0.53438 0.18258 0.75781 0.75195 0.535 0.535-0.53584 1.143 0.28516 1.5-0.357 0.25-0.21331 0.85827-0.57031 1.0723l-1.8945-0.03711c-0.393-0.464-0.10616-1.1409-0.03516-1.7129 0.24612-0.46612 0.8633-1.5403 1.457-1.5742zm-53.207 2.1953c1.0078-0.03009 1.9451 0.03073 2.9629 0.27148 4.25 1.036 8.4284 3.5004 13.107 2.8574l1.4277-0.28711v5.1094c-7.5-0.108-12.535-3.2503-17.428-5.8223a12.985 12.985 0 0 1-2.3926-1.5371c0.179-0.464 0.78516-0.53516 1.2852-0.53516 0.357-0.02675 0.70119-0.04661 1.0371-0.05664zm18.607 1.4141h1.8555v4.2871l-1.8555-0.03711zm68.143 0.14258h1.8574l0.0352 4.25h-1.8574zm-36.037 0.07227c1.214 0.322 2.5712 0 3.7852 0.25-1.107 0.607-2.8909 0.64189-3.9629-0.03711zm57.629 0.12695c0.61544 0.01286 1.2205 0.07031 1.8008 0.19531 0.036 0.714-0.85657 1.1773-1.3926 1.5703-2.321 1.786-5.2856 2.1074-8.1426 2.6074-2.143 0.75-4.4653 1.0724-6.3223 2.3574-1.143 0.286-2.1426 0.89284-3.3926 0.96484l-0.89257 0.03516v-6.0723c0.679-0.036 2.1072 0.10811 2.7852 0.03711 3.25-0.036 6.8934-0.46638 10.107-1.3594 1.6612-0.02625 3.6029-0.37452 5.4492-0.33594zm-33.332 0.60547c0.96232-0.02782 1.5253 1.0938 2.5254 0.875h0.85742c0 1.036-0.96526 1.7852-1.5723 2.5352 0.678 2.071 0.393 4.5368 0 6.7148-0.322 0.036-0.46427-0.35716-0.57227-0.53516-0.428-0.965-0.64047-2.3223-0.10547-3.3223 0-0.178 0.0343-0.393-0.17968-0.5-0.929 0.25-1.5707 1.1419-2.6777 0.96289 0.107 0.215-0.21442 0.07353-0.35742 0.14453l0.0703-0.07227c-0.107-0.143-0.31962 0.03642-0.39062-0.14258 0.464-0.714 1.4993-1.3202 2.0703-2.0352 0.321-0.535 1.0714-1.2153 0.60742-1.8223-1.25 0.036-2.7137 0.03727-3.6777-0.67773 0.535-1.214 1.6769-1.9642 2.9629-2.0352 0.15625-0.05813 0.30198-0.08587 0.43945-0.08984zm-23.582 0.58984c0.75 0.035 1.5717-0.07184 2.1797 0.28516 0.285 0.072 0.85589-0.25153 0.71289 0.35547h0.07227c0.179 0.286-0.285 0.35953-0.5 0.39453-0.785 0.072-1.6434 0.10547-2.3574-0.14453-0.357-0.214-0.39343-0.64062-0.10743-0.89062zm-20.277 1.5039c1.0982 0.03125 2.1875 0.12033 3.3125 0.17383 0.25 0.286 1.5358 0.10589 1.2148 0.96289-0.893 0.286-2.071 0.10869-3 0.17969-1.607-0.357-3.5703 0.25084-5.0703-0.53516-0.286-0.214 0.03473-0.46442 0.17773-0.60742 1.161-0.1785 2.267-0.20508 3.3652-0.17383zm23.984 0.5c0.80362-0.04025 1.5801 0.04798 2.3301 0.70898l3.8574 4.0723c0.464 0.215 0.85674 0.64284 1.1777 0.96484-1.178 0.464-2.7504 0.28362-4.1074 0.39062-4.321-0.142-9.1423 0.24984-13.57-0.28516l-0.17969-0.17773c1.679-1.571 3.2148-3.4276 4.9648-5.1426 0.821-0.571 1.7852-0.5 2.7852-0.5v0.14258c-0.5 0.072-0.96374 0.07242-1.4277 0.10742-2.393 1.107-3.5723 3.429-5.3223 5.25 0.107 0.215 0.39411 0.072 0.53711 0 0.929 0.036 2.4629 0.74847 2.9629-0.39453 1.072-1.5 1.607-3.714 3.5-4.5 0.179-0.214-0.071-0.42731 0-0.57031 0.8575 0.143 1.6886-0.02616 2.4922-0.06641zm-0.25195 0.23828c-0.22991 0.0045-0.45567 0.06895-0.66992 0.2207 1.607 1.358 2.5348 3.1437 3.4648 4.9277 1.071 0.143 2.1078 0.03542 3.2148-0.14258l0.17774-0.10742c-0.036-0.5-0.60658-0.39284-0.89258-0.71484-1.107-1.036-1.9992-2.5703-3.2852-3.3203-0.58875-0.34875-1.32-0.87678-2.0098-0.86328zm-1.4141 0.16211c-0.18378 0.0053-0.38566 0.08594-0.61328 0.27344-1.5 1.179-2.7146 2.893-3.1426 4.75 0.821 0.214 1.8203 0.14326 2.5703 0.07227 0.357-0.215-0.03558-0.643 0.10742-1 0.036-1.036 0.35726-1.8933 0.57226-2.8223 0.178-0.178-0.03558-0.67773 0.35742-0.67773 0.536 1.464-0.107 2.8924 0 4.3574l3.2852 0.03516c0.214-0.035 0.25084-0.25084 0.21484-0.46484-0.429-0.893-1.179-1.6415-1.5-2.6055-0.60938-0.52244-1.0552-1.9409-1.8516-1.918zm2.8164 1.0938c1.322 0.642 1.9632 2.1072 3.0352 3.0352-0.143 0.5-0.67816 0.24984-1.0352 0.21484-0.928-0.893-1.0723-2.2144-2.0723-3.1074zm-25.773 0.0625c0.405 0.02353 0.80095 0.11702 1.0957 0.0098 0.785 0.071 1.8199-0.25 2.2129 0.5 0.107 0.429 0.53711 0.821 0.28711 1.25-0.786-0.214-1.5011-0.42858-2.2871-0.64258-0.036 0.75 0.214 1.7847-0.25 2.4277-0.786-0.75-1.0363-1.8913-1.5723-2.8203-0.035-0.25-0.24862-0.60784 0.10938-0.71484 0.13375-0.01775 0.2693-0.01761 0.4043-0.0098zm19.523 0.11719c-0.214 1.143-1.2857 2.0356-1.6777 3.1426-0.215 0.214-0.536 0.07058-0.75 0.14258-0.25-0.143-0.03584-0.39326 0.03516-0.57227 0.75-0.964 1.4286-2.0699 2.3926-2.7129zm4.248 0.78711h0.21484c0.393 0.643 0.92858 1.3203 0.89258 2.0703-0.393 0.215-0.75042 0.143-1.1074 0-0.143-0.678-0.071-1.3563 0-2.0703zm-2.2129 0.10742c-0.036 0.714-0.10769 1.75-0.67969 2.25l-0.39258-0.03711a3.515 3.515 0 0 1 1.0723-2.2129zm-33.463 0.60547h1.8555v4.25h-1.8555zm68.178 0.10742h1.8574l0.0371 4.25h-1.8574zm-53.715 0.96484c0.607 0.178 1.3223 0.06989 1.8223 0.46289 0.179 0.607 0.35616 1.2856 0.28516 1.8926-0.75 0.035-1.4993-0.393-2.3203-0.5-0.286-0.643-0.03711-1.2845 0.21289-1.8555zm37.822 0.64062c0.572 0.143 1.1775 0.35869 1.6055 0.67969-0.107 0.25-0.14215 0.64216-0.53515 0.53516-0.107 0.035-0.24847-0.03584-0.35547 0.03516 0.107 0.322 0.78515 0.35938 0.53515 0.85938-0.393 0.321-0.92968 0.28389-1.4297 0.46289 0.571 0.214 1.1083 0.03642 1.5723 0.35742 0 0.393-0.46484 0.39342-0.71484 0.60742h-0.39258l0.0703 0.14258-2.8906 0.03516c-0.143-0.286-0.60953-0.10573-0.89453-0.17773l-0.0703 0.07227c0.965 1.178 2.6775 0.75 4.1055 1l-0.28515 0.28516a40.883 40.883 0 0 1-6.6055 0.53514c1.107 0.786 2.75 0.53684 4 0.71484-0.215 0.5-0.78669-0.03516-1.1797 0.21484-1.643 0.285-3.5356 0.28431-5.1426 0.32031 0.107 0.429 0.57158 0.39384 0.89258 0.46484 0.786 0.143 1.5714 0.21458 2.3574 0.39258l-0.17773 0.17773c-1.75 0.178-3.4665-0.14216-5.1445 0.21484 0.393 0.357 0.92953 0.46358 1.3945 0.64258l-0.14453 0.14258a35.852 35.852 0 0 1-4.3555 0.17969l-0.10938 0.14258c0.393 0.429 0.92969 0.14216 1.4297 0.28516l2.6797 0.28711c0.035 0.214-0.42969 0.21416-0.67969 0.28516l-3.1797 0.17773c-0.214 0.321-0.46289 0.10811-0.71289 0.28711 0.179 0.285 0.60573 0.21416 0.92773 0.28516l-0.28516 0.28516c-1.25-0.179-2.4647 0.321-3.6797 0 0.393-0.107 0.786-0.28516 1.25-0.28516l0.14453-0.17969c-0.643-0.286-1.4288-0.14258-2.2148-0.14258-1.536 0.5-3.036-0.21316-4.5 0.21484 0.679 0.393 1.5008-0.03727 2.2148 0.17773 0.75 0.214 1.8203 0.03669 2.5703 0.17969-0.5 0.322-1.107 0.07184-1.75 0.21484-1.643 0.035-3.6413-0.03753-5.3203-0.39453 0.357-0.465 0.96458 0.28516 1.3926-0.21484 0.072 0 0.21289 0.03584 0.21289-0.03516l-0.32031-0.28515c-2.214-0.357-4.9282 0.464-6.5352-1.25 0.786 0.036 1.5716-0.10742 2.3926 0.14258 0.072 0.286-0.35827 0.10658-0.32227 0.39258 0.928 0.214 2.1443 0.64427 3.0723 0.07227-0.428-0.393-1.1791-0.21442-1.7871-0.35742-0.107-0.107-0.28362-0.03516-0.39062-0.03516l0.21289-0.35742c-0.25-0.143-0.78642-0.17842-1.1074-0.10742-1.465-0.286-2.9633 0.71442-4.0703-0.64258-1.857-1.464-4.2148-3.2864-5.4648-5.3574 0.036-0.179 0.25042-0.14384 0.35742-0.21484 0.679 0.321 1.8223 0.17953 2.0723 1.1445 0.214 0.321 0.67773 0.06989 0.92773 0.21289-0.214 0.25-0.607 0.39258-1 0.39258 0.143 0.464 0.964 0.21442 1 0.85742 0.179 0.286 0.57227-0.07089 0.57227 0.28711-0.179 0.142-0.43011-0.0011-0.53711 0.21289a0.73 0.73 0 0 0 0.89258 0.21484c0.071 0 0.10742 0.03516 0.10742 0.03516 0.036 0.214-0.25042 0.10811-0.35742 0.28711 0.107 0.535 0.85742 0.14173 0.85742 0.67773 0.5 0.214 1.393-0.10742 1.75 0.14258-0.322 0.036-0.57242 0.21316-0.85742 0.28516 0.928 0.357 2.1445 0.21416 2.8945-0.21484-0.429-0.142-0.96638 0.03627-1.3594-0.17773 0.108-0.286 0.50138-0.25026 0.60938-0.57227-0.429-0.392-1 0.32353-1.5 0.14453 0.107-0.428 0.78362-0.03627 0.89062-0.57227-0.607-0.143-1.428 0.03558-2-0.10742 0.358-0.286 0.786-0.14258 1.25-0.39258a1.174 1.174 0 0 0-0.78516-0.17774l0.35742-0.46484c-0.214-0.214-0.57116-0.03558-0.78516-0.14258 0.036-0.071-0.03711-0.10658-0.03711-0.14258 0.108-0.143 0.358-0.10716 0.5-0.28516 0.036-0.179-0.17816-0.21611-0.28516-0.28711-0.465 0.107-0.99831 0.14342-1.3203-0.14258l0.53516-0.17969-0.03516-0.03516c0 0.035 0.35658 0.03516 0.39258-0.21484-0.607-0.464-1.6776 0.21527-1.8926-0.67773l0.85547-0.03516v-0.17773c-0.321-0.179-0.67773 0.107-0.92773 0-0.286-0.643-0.46316-1.5718-0.03516-2.2148 2.572 1 5.2504 1.536 8.1074 1.75l0.10547 0.14258c2.25 0.179 4.8234 0.10616 7.1094 0.28516l0.14063 0.10743c4-0.036 7.7157-0.07058 11.68-0.39258a2.41 2.41 0 0 1 1.1074-0.17773c1.893 0.107 3.6059-0.96484 5.4629-1.4648 0.25-0.214 0.60953-0.21553 0.89453-0.39453zm3.7148 0.10938c0.535 0.142 0.10758 0.74862 0.14258 1.1406-0.464 0.143-0.89258 0.89369-1.3926 0.42969 0.178-0.643 0.428-1.4993 1.25-1.5703zm-75.645 1.8555c0.464 0.035 1.1795-0.03447 0.89453 0.64453-0.286 0.464-0.50138 0.89089-0.60938 1.4629-0.392 0.464-1.0712 0.17842-1.5352 0.10742-1.429-0.429-2.7135-0.64342-3.8555-1.3574-0.036-0.072-0.10938-0.10573-0.10938-0.17773 1.643-0.643 3.3578-0.64469 5.2148-0.67969zm4.6309 0.49024c1.4453 0.03864 3.4774 0.35008 6.5137 0.43945-0.215 0.5-0.32353 0.78711-0.39453 1.2871-0.429 2.893 1.8578 5.8923 2.4648 7.0703 1.5 3 1.2852 3.7494 1.2852 6.3574 0 0.928-0.53584 2.4644-1.9648 1.8574-1.5-1.107-1.0352-2.2858-0.78516-3.4648 0.393-1.821 1.285-3.8926-0.25-5.8926-0.893-1.143-3.1057-1.1076-4.4277-1.1426-2-0.036-3.3934 0.14231-4.3574 0.07031-0.893-0.071-1.1422 2.65e-4 -1.2852-0.92773-0.107-0.608-0.53542-4.4293 1.1426-5.3223 0.53588-0.28125 1.1914-0.35522 2.0586-0.33203zm106.45 0.43359c1.2321 0.02237 2.4367 0.21952 2.4902 0.54102-1.393 0.964-2.4629 2.4294-4.2129 2.6074l-0.92969-2.6426c0.161-0.375 1.4202-0.52824 2.6524-0.50586zm-92.547 0.04297v3.3555c-1.428 0.036-2.0699-0.07058-2.4629-0.14258-1.75 0.036 0-1.4282-1.5-3.0352 0.322 0 2.0349-0.17774 3.9629-0.17774zm-5.3906 0.25c0.642 0.393 0.74973 1.143 0.92773 1.75 0 0.214-0.14427 0.28558-0.32227 0.39258-0.536 0-1.7142 0.321-1.7852-0.5 0.071-0.536 0.03558-1.179 0.64258-1.5 0.178-0.036 0.32211-0.14258 0.53711-0.14258zm91.199 0.17383c1.2277-0.01649 2.2781 0.05647 2.5859 0.32422 1.393 1.25 1.2146 5.2867 0.64258 5.9297-0.536 0.607-2.2852 0.32031-3.0352 0.32031-1.357 0-2.7493-0.17942-4.0703 0.14258-1.143 0.286-2.1443 1.3207-2.5723 2.4277-0.679 1.822 0.0347 4.0367-0.32227 5.9297-0.143 0.75-0.393 2.4647-1.5 2.1797-0.964-0.25-0.99973-1.6437-0.92773-2.4297 0.214-2.143 1.2137-4.1063 1.9277-6.0703 0.857-2.358 2.0003-4.4661 1.8223-7.0371-0.072-1-0.67816-1.3216 0.46484-1.3926 0.40188-0.0225 2.9383-0.29674 4.9844-0.32422zm-13.342 0.074218c0.821 0.214 3.0343 0.64342 3.3203 0.60742-0.286 3.679 0.35853 4.572 2.8945 4.5 0.036 0.714-4.3577 2.1434-6.1797 2.6074 0-2.571-1.6e-4 -5.1788-0.0352-7.7148zm5.5703 0.28516c0.464 0.143 1.0363 0.46416 1.0723 1.0352 0.035 0.858 0.42858 1.9648-0.35742 2.4648-0.107 0.143-1.678 0.39453-1.75-0.60547-0.214-0.75-0.35758-1.9293 0.35742-2.5723 0.214-0.178 0.42773-0.28727 0.67773-0.32227zm-76.928 1.2852h1.8555l-0.03516 4.25h-1.8574zm68.215 0.10938h1.8555l0.0352 4.25h-1.8555zm-74.666 1.5391c1.5637 0.05513 4.7443 0.71875 5.4141 1.2812-0.036 10.679-0.07242 21.463-0.10742 22.32-0.25 2.715-0.10658 10.323 14.107 16.537 1.25 0.536 13.679 4.6782 15.715 5.5352s5.9989 3.6066 6.4629 4.3926c0.465-0.786 4.4288-3.5356 6.4648-4.3926 2.035-0.857 14.465-4.9992 15.715-5.5352 14.214-6.214 14.358-13.822 14.215-16.572-0.035-0.715-0.0714-8.6413-0.10742-17.57 1.072-0.643 4.1777-1.785 5.1777-2a6.592 6.592 0 0 1-0.75 1.7148c-1.215 2.714-2.536 6.3905-1 8.6055 1.178 1.535 3.2515 1.2865 4.8945 1.1445-5.108 19.928-23.145 34.641-44.645 34.641-21.75 0-39.963-15.035-44.82-35.285 1.357 0 2.8555-0.28432 4.1055-0.82032 2.536-1.393 1.8941-5.6447 1.0371-8.1797-0.607-1.965-2.5-4.5716-2.75-5.6426 9e-3 -0.143 0.34986-0.1922 0.87109-0.17383zm28.012 1.0137c-0.1947 0.02122-0.38205 0.09783-0.56055 0.26758 0.857 0.25 1.6769 0.07184 2.4629-0.03516-0.66975 0.13425-1.3182-0.29608-1.9023-0.23242zm5.2246 0.83789-0.10742 0.17969c1.107 0.214 2.1422 0.32142 3.2852 0.10742v-0.07227c-1.107-0.143-2.1057-0.14284-3.1777-0.21484zm10.605 0.60938c-2.678-0.072-5.2835 0.35716-7.8555 0.28516l0.57031 0.21484c2.178 0.107 5.0365 0.357 7.1445 0 0.285-0.215 0.57031 0.17662 0.82031-0.10938-0.143-0.25-0.46469-0.24862-0.67969-0.39062zm-51.07 1.25c0.929 0 1.25 0.25 1.25 2.25 1.036 25.357 21.893 45.605 47.5 45.605 25.179 0 45.787-19.75 47.43-44.5 0.035-0.607 0.0703-2.2487 1.0703-2.1777 0.857 0.072 5.8566 0.07227 6.8926 0.07227 1 0.071 1.4637 0.71262 1.4277 1.3906-1.107 30.393-26.106 54.537-56.82 54.537-30.964 0-56.143-24.357-56.857-55.143 0-1.178 0.42773-1.8938 1.9277-1.9648 0.929-0.071 5.1437-0.07031 6.1797-0.07031zm3.4824 0.33984c0.54475-0.07138 1.1434 0.21289 1.2324 0.58789 1.429 3-2.1074 7.0723 0.64258 8.8223-0.75 0.178-0.99974 0.17858-1.6777 0.14258-0.429-1.035-1.1804-6.392-1.1094-8-0.125-1.0535 0.36736-1.4814 0.91211-1.5527zm10.16 0.98047h1.8574l-0.03516 4.25h-1.8574zm68.287 0.10742h1.8574v4.25h-1.8574zm12.156 0.32617c0.50141-0.04539 1 0.38875 0.84375 1.2812 0.035 2.072-0.82185 6.3917-1.2148 7.4277-0.535 0-0.82142 0.25126-1.6074 0.0723 2.036-3.5-0.21315-5.0727 1.2148-8.1797 0.16087-0.375 0.46282-0.57433 0.76367-0.60156zm-50.123 0.31836c1.25 0.071 2.4998 0.06989 3.7148 0.21289 0.535-0.357 1.2502-0.03516 1.7852-0.03516-0.071 0.25-0.82058 0.428-0.64258 0.75 0.286 0.035 0.82184-0.07116 0.96484 0.21484-1.893 0.107-3.9648 0.14216-5.7148-0.46484-0.285-0.108-0.42842-0.46374-0.10742-0.67774zm-47.6 0.53906c-0.20546-0.02394-0.40412 0.0405-0.57812 0.28125-0.322 0.358-0.43011 0.89242-0.28711 1.3574 0.214 0.357 0.53669 0.57226 0.92969 0.57226 0.428-0.036 0.89242-0.03684 1.1074-0.46484 0.107-0.429 0.03431-0.92816-0.17969-1.2852-0.29-0.13375-0.64975-0.42104-0.99219-0.46094zm104.67 0.31055c-0.0921-0.0067-0.18886-0.0051-0.28711 0.0039-0.464 0.072-0.571 0.57284-0.5 0.96484 0.143 0.608 0.78669 0.49958 1.1797 0.39258 0.428-0.143 0.32115-0.678 0.28515-1-0.1605-0.24075-0.4015-0.34122-0.67773-0.36133zm-54.789 1.1855c0.857 0.107 1.7873 1.57e-4 2.5723 0.28516l-0.5 0.32226 0.17774 0.17774 1.3574 0.17968c0.143 0.107 0.18011 0.21332 0.03711 0.32032-0.643 0-1.1801 0.21442-1.7871 0.35742 0 0.035 0.07269 0.14258 0.17969 0.14258 0.535 0.143 1.3214-0.0712 1.6074 0.46484-0.322 0.214-0.85727-4.2e-4 -1.0723 0.39258 0.429 0.321 1.072 0.21484 1.5 0.21484-0.428 0.393-1.2144-0.14384-1.6074 0.53516 0.857 0.214 1.643 0.21484 2.5 0.21484-0.607 0.5-1.6078 0.42716-2.4648 0.53516-1.286 0.071-2.6417-0.0358-3.6777-0.71485 0.643-0.928 1.3216-1.9629 0.89258-3.2129zm51.789 2.2832c-0.429 0.536-0.893 1.1433-1 1.8223 0.071 0.643-0.10727 1.5011 0.42773 1.7871 2.357 1.714 2.7511-1.9664 4.7871-2.1094 0.25 0.179 0.56974 0.429 0.67774 0.75 0.142 1.143-0.49874 2.0735-1.4277 2.6445l0.75 0.21485c0.5-0.465 1.1417-1.1095 1.1777-1.8945 0.25-1-0.0716-1.9985-0.89258-2.6055-2.143-0.858-2.5364 2.3559-4.3574 2.4629-0.465-0.179-0.49916-0.64216-0.53516-1.0352 0.107-0.75 0.786-1.5 1.5-1.75-0.25-0.25-0.75042-0.17911-1.1074-0.28711zm-104.07 0.92969c0.072 0.571-0.03542 1.5706 0.39258 1.8926 0.286-0.036 0.10658-0.35589 0.39258-0.46289 0.286-0.215 0.57058 0.10547 0.89258 0.10547 0.786 0.25 0.50127 1.2504 0.82227 1.8574 0.036 0.643 0.60531 1.3926 0.07031 1.8926-0.322 0.393-0.92731 0.607-1.3203 0.5 0.107 0.464 0.21331 1.0714 0.32031 1.6074 0.035 0.25 0.21569 0.57226 0.42969 0.57226 1.107-1.928 3.072-3.1445 4.75-4.8945l0.07031-0.21289c-1.857-1.107-4.1066-1.4653-6.1426-2.3223zm66.268 0.50195c3.698 0.0249 7.402 0.18572 11.125 0.10547 0 0-3.6426 4.9987-5.6426 7.4277 0 0-36.43-0.0359-38.645-0.21485-0.035 0 4.786-4.9277 7-7.1777h6.75c-0.607 0.643-1.7125 1.1443-2.1055 2.0723v1.0703c1.322 1.857 3.5356 1.643 5.3926 2.25 1.179 0.035 2.2852 0.39426 3.5352 0.32226 3.214 0.179 6.357-0.53726 9.25-1.5723 0.428-0.465 0.821-0.89132 0.75-1.5703 0.036-1.035-0.60727-1.8578-1.3223-2.4648l0.21485-0.21484c1.232-0.0358 2.4646-0.0415 3.6973-0.0332zm-46.625 0.21289h1.8574v4.25h-1.8574zm68.357 0.0703h1.8574v4.25h-1.8574zm-38.395 0.25c2.858 1.428 6.9304 1.9288 9.8594 0.21484 0.392 0.107 1.0707-0.28669 1.1777 0.32031-0.821 0.5-1.3938 0.89453-3.2148 1.1445 1.178 0.715 3.6777-0.10742 3.6777-0.10742-0.214 0.643-2.6422 1.0347-3.7852 1.1777 0.607 0.428 1.607 0.21568 2.25 0.42968-0.643 0.429-1.5716 0.322-2.3926 0.5-3.643 0.286-7.6793 0.39258-10.822-1.3574 0.679-2.036 3.25-2.3223 3.25-2.3223zm-46.285 1.1797c0.607 0.036 1.1795 0.25 1.6445 0.5-0.108 0.536-0.74984 1.0705-1.2148 1.3555-0.393-0.392-0.64469-1.2125-0.42969-1.8555zm74.645 0.28518c0.035 2.179 0.99973 2.4633 1.4277 3.0703-1.178 1.858-2.7493 3.6428-4.0703 5.4648-0.75 0.714-1.357 1.9644-2.5 1.8574-0.536-0.214-0.643-0.82242-0.75-1.3574 0.607-3.679 3.6066-6.1062 5.8926-9.0352zm30.75 2.3574-0.35938 0.32227c-1.928 1.035-4.0335 1.1773-6.1055 1.8203 0.107 0.464 0.42747 0.96358 0.85547 1.1426 1.143 1.5 3.2164 2.5357 3.6094 4.4277 0.178-0.607 0.85547-1.3567 0.60547-1.9277-0.607 0.107-1.0718-0.46289-1.4648-0.96289 0.143-1 0.42969-2.0014 0.92969-2.8594 0.5-0.321 1.3923-0.21415 1.5703 0.46485 0.358-0.715 0.50138-1.6777 0.35938-2.4277zm-101.21 2.0352c-0.071 0.286-0.07184 0.57226-0.21484 0.82226-1.107 0.679-2.4283 0.89174-3.5703 1.4277-0.5 0.214-1.1445 0.14273-1.6445-0.0723 0.143 0.75 0.53516 1.4664 0.78516 2.1094 0.108-0.786 0.965-0.82227 1.5-1.0723 0.322-0.178 0.71527 0.0356 0.82227 0.39258 1.107 1.107-0.57242 1.8938-0.60742 2.9648-0.357 1.322 0.10869 2.7137 0.67969 3.6777-0.678-1.607-0.03627-3.3212 0.92773-4.5352 0.678 0.214 1.428 0.89189 2.25 0.46289 1-0.964 0.42842-2.5347 0.10742-3.6777-0.429-0.822-0.67816-1.75-1.0352-2.5zm97.965 0.35742 0.10547 0.32031c-0.143 0.465-0.10574 1.0014-0.42774 1.3594-0.5-0.215-1.0011-0.64453-1.2871-1.1445 0.393-0.429 1.0734-0.35616 1.6094-0.53516zm-85.859 0.14258h1.8594v4.1426l-0.92969 0.10742-0.92969-0.0352v-0.53711zm68.395 0.0723h1.8574v4.2851l-1.8574-0.0703v-0.14453zm-80.633 1.6758c0.46402 4e-3 0.51134 0.61732 0.66797 0.92969-0.036 0.572 0.28684 1.1805-0.03516 1.6445-0.357 0.215-0.821 0.49985-1.25 0.21485-0.643-0.572-0.75016-1.3231-1.0352-2.0371 0.285-0.393 0.92773-0.60589 1.4277-0.71289 0.08488-0.0269 0.15832-0.0397 0.22461-0.0391zm25.203 0.10934s31.678 0.21484 38.393 0.21484c-1.179 2.072 0.53516 3.7852 0.53516 3.7852s-34.142-0.10742-40.32-0.10742c-1-0.25-0.64342-3.9286 1.3926-3.8926zm68.43 0.25c-0.75 1.714-1.2863 3.6077-2.3223 5.1797l0.89258 0.39062c-0.036-0.392 0.17968-0.64215 0.17968-1.0352 0.107-0.357 0.322-0.74916 0.75-0.78516 1.572 0.607 3.107 1.2852 4.5 2.2852 0.107 0.178-1.5e-4 0.53626 0.21485 0.57226 0.214-0.857 0.92662-1.607 0.89062-2.5-0.321 0.607-0.96289 0.25-1.4629 0.25-1.321-0.678-2.8934-0.89258-3.8574-2.1426 0.143-0.678 0.5-1.3934 1-1.8574-0.214-0.214-0.49916-0.32142-0.78516-0.35742zm-79.395 4.5a10.16 10.16 0 0 0 1.2148 3.6797l-1.6426 0.92773a12.279 12.279 0 0 1-1.4277-4.3574zm66.252 0.0703 1.8574 0.21485c-0.179 1.643-0.60742 3.0365-1.3574 4.3945l-1.6426-0.92968c0.607-1.107 0.96458-2.2867 1.1426-3.6797zm-77.488 0.8086c-0.201-5e-3 -0.38867 0.0141-0.51367 0.12109 0.715 0.536 1.0371 1.2852 1.2871 2.0352-0.643 0.893-1.7504 1.1784-2.6074 1.8574-0.679 0.321-1.3574 0.82073-2.1074 0.67773 0.321 0.679 0.57058 1.465 1.1426 2-0.25-0.428 0.28669-0.64089 0.42969-0.96289 1.25-0.857 2.4648-1.7864 3.9648-2.1074a17.052 17.052 0 0 1 1.3203 2.1074c0.25-0.214 0.35742-0.39426 0.60742-0.57226-0.964-1.643-1.9997-3.3926-2.9277-5.1426-0.179 0.018-0.3947-9e-3 -0.5957-0.0137zm87.881 0.9414c-0.285 0.5-0.60784 0.929-0.71484 1.5l0.67969-0.0703c1.642 0.964 3.4986 1.5714 4.8906 2.8574 0.465-0.428 0.57338-1.0371 0.85938-1.5371-0.322 0-0.5 0.10953-0.75 0.14453-1.608-0.678-3.1437-1.5017-4.6797-2.4297zm-0.95898 3.5254c-1.7483-0.0436-2.5018 2.5327-3.7207 3.6895v0.21485c0.25-0.107 0.35868-0.0353 0.67968-0.0703l1.8926 1.3555c0.786 0.857 2.2496 1.25 2.3926 2.5 0.464-0.572 0.857-1.143 1.25-1.75-1.036 0.571-1.8923-0.74832-2.5703-1.0703-0.036-0.535 0.50015-0.85868 0.78515-1.1797 1.715 0 3.8553-0.0712 4.8203-1.7852-1.107 0.536-2.5718 0.99958-3.9648 0.64258-0.75-0.393-0.17815-1.357-0.53515-2l-0.21485-0.35742c-0.29462-0.125-0.56469-0.18323-0.81445-0.18946zm-73.221 0.15431c0.785 0.929 1.7858 1.857 2.9648 2.75l-1.1074 1.5c-1.286-0.964-2.3922-1.9992-3.2852-3.0352zm61.395 0.0703 1.4277 1.2148c-0.893 1.035-1.9992 2.035-3.2852 3l-1.1074-1.5c1.179-0.893 2.1788-1.7858 2.9648-2.7148zm11.105 0.78711c0.464-0.036 0.92842 0.24958 1.1074 0.64258 0.321 0.964-0.42942 1.8922-1.1074 2.5352-0.572-0.143-1.3216-0.53558-1.6426-1.1426 0.286-0.822 0.92758-1.6062 1.6426-2.0352zm-81.68 1.0371v0.46289c-0.821 0.893-1.7857 1.6793-2.6777 2.3223-0.643 0.392-1.4288 1.1782-2.2148 0.78515 0.893 1.679 2.1788 2.9288 3.2148 4.4648a4.213 4.213 0 0 0 0.71484-0.14258c0.286 0.071 0.67758 4.2e-4 0.89258-0.14258-0.25 0-0.39342-0.10658-0.60742-0.14258l0.03516-0.0371-0.28516-0.0352c-0.893-0.858-2.1786-1.6426-2.1426-2.8926 0.464-0.429 0.92842-1.1073 1.6074-1.0723 0.464 0.5 0.99931 1.0718 1.0703 1.7148 0.322-0.179 0.71569-0.35674 0.92969-0.67774-0.75-0.143-0.96484-1.036-1.4648-1.5 0-0.107-0.07184-0.25111 0.03516-0.28711 0.536-0.178 0.99984-1.1427 1.7148-0.67773 0.678 0.893 1.9277 1.8206 1.6777 2.8926 0.25-0.25 0.82158-0.39242 0.89258-0.85742-1.25-1.321-2.1426-2.9277-3.3926-4.1777zm14.109 2.1758a42.808 42.808 0 0 0 3.6426 2l-0.82227 1.6797c-1.393-0.679-2.6773-1.3563-3.8203-2.0703zm51.537 0 0.96289 1.6094a41.9 41.9 0 0 1-3.8203 2.0352l-0.82226-1.6797a38.812 38.812 0 0 0 3.6797-1.9648zm11.533 1.502-3 3.25c1.178 0.179 1.7497 1.3212 2.6777 2.0352 0.465 0.857 1.8224 1.2868 1.6074 2.4648 0.572-0.357 0.85758-0.821 1.3926-1.25 0.465-1.178 2.9654-1.8917 1.6074-3.4277-0.142 0.393-0.17858 0.82074-0.39258 1.1777-0.679 0.572-1.0723 1.6788-2.0723 1.7148-0.464-0.393-1.3559-0.786-1.2129-1.5 0.286-0.536 0.67715-0.96458 1.2852-1.1426-0.215-0.357-0.53557-0.607-0.89257-0.75 0 0.714-0.82243 1.1419-1.1074 1.4629-0.465-0.178-1.0356-0.81947-1.3926-1.3555 0.071-0.5 0.321-0.929 0.75-1.25 0.5-0.5 1.1063-0.89453 1.8203-0.64453-0.214-0.357-0.64231-0.67715-1.0703-0.78515zm-57.285 1.4277c0.786 0.286 2.286 0.78558 4 1.3926l-0.60742 1.7871c-1.75-0.608-3.2492-1.1087-4.0352-1.4297zm39.93 0 0.64258 1.75c-0.821 0.286-2.2852 0.82169-4.0352 1.4297l-0.60742-1.7871c1.714-0.607 3.214-1.1066 4-1.3926zm-54.717 1.7871c-2.643 1.071 0.46526 3.7502-1.1777 5.2852-0.75 0.286-1.1788-0.21374-1.7148-0.67774-0.25-0.643-0.71484-1.4648-0.21484-2.2148-0.357 0.107-0.678 0.42773-1 0.67773l0.39258 1.3574c0.821 1 1.8583 2.2507 3.3223 1.6797 1.679-1.143 0.39284-3.1798 0.46484-4.7148 0.107-0.358 0.42689-0.46527 0.71289-0.57227 0.536 0.107 1.0011 0.39342 1.2871 0.85742 0.393 0.679 0.17842 1.5358 0.10742 2.2148 0.286-0.393 1.2137-0.5 0.92773-1.25-0.607-1.179-1.5354-2.7496-3.1074-2.6426zm21.072 0.39258c1.393 0.5 2.7852 0.96262 4.0352 1.3906l-0.60742 1.7871c-1.25-0.428-2.6432-0.92758-4.0352-1.3926zm27.357 0 0.60547 1.7852c-1.393 0.465-2.7852 0.96458-4.0352 1.3926l-0.60742-1.7871c1.25-0.428 2.6441-0.92662 4.0371-1.3906zm19.678 0.53515c-0.428 0.465-1.0712 0.89343-1.2852 1.3574 1 0.358 1.0703 1.6786 1.3203 2.6426 0.036 0.5 0.39342 1.072 0.10742 1.5-1.321-0.285-2.4644-1.1782-3.6074-1.7852-0.25-0.179 0-0.39327 0-0.57227-0.714 0.286-1.3566 1.0368-1.8926 1.4648l0.89258-0.0352c1.964 0.821 3.8231 1.9648 5.7871 2.7148-0.179-2.536-1.3573-4.8221-1.3223-7.2871zm-26 1.6426 0.60742 1.7852c-0.715 0.25-1.2492 0.46526-1.5352 0.57226a18.91 18.91 0 0 0-2.1445 1.1426l-0.96289-1.6074c0.928-0.571 1.7136-0.99916 2.3926-1.2852 0.321-0.143 0.89258-0.35742 1.6426-0.60742zm-14.715 0.0723c0.714 0.25 1.2864 0.46247 1.6074 0.60547 0.679 0.25 1.4657 0.67815 2.4297 1.2852l-1 1.6094c-0.893-0.536-1.6077-0.92969-2.1797-1.1797-0.285-0.107-0.821-0.32031-1.5-0.57031zm8.6426 3.1777 1.0723 1.5352c-0.678 0.464-1.2858 0.928-1.7148 1.25l-0.53516 0.39258-2.3574-1.6055 1.0352-1.5371 1.25 0.85742c0.357-0.286 0.786-0.57058 1.25-0.89258zm-31.605 0.21485c-0.393 0.072-0.64342 0.49957-0.60742 0.89257 0.071 0.393 0.25042 0.786 0.60742 1 0.428 0.036 0.85631-0.0714 1.0703-0.35742 0.143-0.321 0.21569-0.89273-0.07031-1.1777-0.25-0.25-0.607-0.39242-1-0.35742zm6.7852 1.625c-0.51408-0.0184-1.0446 0.0893-1.3926 0.51757-0.5 1.286 0.464 2.5343 1.25 3.5703 0.071 0.535 0.35716 1.2144-0.21484 1.6074-0.25 0.178-0.714 0.21511-1 0.0371-1.071-0.46502-1.5703-1.6079-1.5703-2.7149-0.321 0.286-0.60784 0.607-0.71484 1 0.321 1.072 1.3223 2.0345 2.3223 2.3555 0.786 0.108 1.8917 0.28585 2.4277-0.53515 0.393-1.536-0.71373-2.75-1.4277-4-0.143-0.322-0.21527-0.85532 0.17773-1.0703 0.285-0.178 0.75016-0.178 1.0352 0 0.929 0.536 1.3933 1.3928 1.3223 2.4648 0.321-0.322 0.643-0.82227 0.75-1.3223-0.679-0.678-1.4989-1.5364-2.4629-1.8574-0.16075-0.0267-0.33059-0.0466-0.50195-0.0527zm51.18 0.4082c-0.286-0.036-0.39342 0.32158-0.60742 0.39258-0.071 0.393-0.14384 0.92968 0.28516 1.1797 0.285 0.178 0.67968 0.17885 0.92968-0.0351 0.286-0.286 0.46458-0.60727 0.39258-1.0723-0.25-0.392-0.678-0.35784-1-0.46484zm-5.7871 1.002c-0.392 2.072-0.14215 4.0011-0.28515 6.2871l-0.32227 0.57031c0.572-0.107 1.0724-0.46373 1.6074-0.67773-0.321-0.179-0.607-0.60727-0.5-1.0723 0.679-0.821 1.8926-1.1432 2.8926-1.5352 0.429 0.214 0.78516 0.71484 0.53516 1.2148l0.10742-0.17969c0.786-0.035 1.464-0.71373 2-1.1777-0.464 0.178-0.96442-0.0724-1.3574-0.35742-1.643-0.929-3.1777-2.1793-4.6777-3.0723zm-3.9277 1.3926c-0.679 0.107-1.3566 0.429-1.8926 0.75l0.49805 0.39453c0.75 1.786 1.1801 3.4632 1.7871 5.2852-0.072 0.178-0.32185 0.357-0.21485 0.5 0.643-0.358 1.393-0.608 2-1-1-0.143-1.0699-1.3223-1.4629-2.0723-0.286-1.25-1.3938-2.5364-0.71484-3.8574zm4.5352 0.42969c0.642 0.142 1.2856 0.60758 1.6426 1.1426-0.535 0.25-1.2142 1.2157-1.7852 0.67968 0.035-0.679-0.14343-1.2513 0.14257-1.8223zm-38.912 0.18554c-0.40072-7e-3 -0.80231 0.0449-1.1953 0.16993-1.142 0.678-2.0336 1.8223-1.8906 3.3223 0.178 1.107 0.85716 2.0347 1.7852 2.6777 0.893 0.357 1.9646 0.53653 2.8926 0.14453 0.286-0.393 0.57242-0.929 0.60742-1.5h-0.17969c-0.536 0.821-1.3928 1.035-2.2148 1-0.75-0.215-1.3556-0.85938-1.6406-1.6094-0.25-0.785-0.03669-1.6773 0.32031-2.3203 0.571-0.679 1.3934-1.464 2.3574-1.25 0.857 0.179 1.8212 0.85616 2.0352 1.7852 0.214-0.286 0.32074-0.643 0.42773-1-0.9105-0.83025-2.1025-1.3981-3.3047-1.4199zm31.234 0.38279a0.876 0.876 0 0 0-0.57031 0.21484 75.485 75.485 0 0 1-4.8945 1.25c-0.072 0.393-0.17858 0.85658 0.10742 1.1426 0.143-0.464 0.607-0.57074 1-0.67774 0.5-0.036 1.107-0.32115 1.5 0.21485l0.89258 3.6777c0.25 0.536 0.0354 1.2137-0.39258 1.4277 0.607 0.036 1.0364-0.21289 1.6074-0.21289 0.25-0.107 0.679-2.7e-4 0.75-0.32227-0.321 0.072-0.57169-0.10742-0.67969-0.35742-0.571-1.107-0.64089-2.4276-0.96289-3.6426-0.036-0.428-0.357-0.92731 0-1.3203 0.572-0.322 1.4293-0.67985 2.0723-0.21485-0.143-0.358-0.14369-0.85868-0.42969-1.1797zm-25.25 1.252c0.714 0.929 0.03558 2.0714-0.10742 3.1074-0.357 1.107-0.35616 2.3926-1.2852 3.1426 0.857 0.179 1.7504 0.35658 2.3574 0.39258l-0.5-0.46289c0.036-1.75 0.53558-3.3578 0.89258-4.9648 0.107-0.357 0.572-0.60826 0.75-0.82226zm18.785 0.60547c-0.607 0-1.1428 0.18011-1.7148 0.28711l0.21485 0.10547c0.893 0.679 0.57184 1.8574 0.71484 2.8574 0.036 0.214-0.0702 0.46484-0.28516 0.46484-1.107-0.857-2-2.0363-3-3.0723-1.035-0.393-1.7504 0.0373-2.8574 0.0723 0.322 0.322 0.89173 0.0714 1.1777 0.60742 0.214 1.464 0.21484 3.0354 0.21484 4.6074-0.107 0.357-0.39369 0.607-0.67969 0.75 0.715 0.178 1.5375-0.0371 2.1445-0.0371-1.571-0.964-0.64469-2.9282-0.92969-4.5352l0.28516-0.28516c1.429 1.535 2.9657 3.0356 4.4297 4.6426h0.28516c0-1.892-0.21347-3.4653-0.35547-5.3223 0.142-0.321-0.0735-0.82058 0.35547-1.1426zm-14.105 0.10742 0.35547 0.32227c0.357 1.643-0.17884 3.1072-0.21484 4.7852 1e-6 0.572-0.46247 1.1433-0.85547 1.3223 1.786 0.036 3.7137 0.35658 5.4277 0.39258 0.286-0.5 0.78727-1.072 0.82227-1.5-1.035 1.178-2.7863 0.78431-4.0723 0.57031l-0.35742-0.28516c-0.179-0.535-0.14131-1.3928 0.17969-1.9648 0.893 0 1.8562-0.10674 2.5352 0.57226 0.036-0.429 0.21331-0.85826 0.07031-1.3223-0.75 0.464-1.8195 0.10658-2.6055-0.10742 0-0.643-0.17927-1.571 0.42773-2 1.107 0.214 2.8566-0.31989 3.3926 1.0371 0.214-0.143 0.03669-0.46569 0.17969-0.67969-0.071-0.321-0.0017-0.71358-0.42969-0.64258l0.03516-0.0352c-1.714 0-3.2836-0.24984-4.8906-0.46484zm-40.045 1.1602c0.73438-0.0285 1.4817 0.0301 2.2227 0.16406a8.37 8.37 0 0 1 4.2852 3c1.464 1.964 1.893 4.964 1 7.25-1 2.893-3.8919 4.8203-6.9629 4.8203-3.286 0-6.2874-2.1423-7.3594-5.0703-0.714-2.465-0.53362-5.3212 1.1094-7.2852 1.419-1.9282 3.502-2.7935 5.7051-2.8789zm92.268 0.0703c2.2029 0.0854 4.2853 0.9487 5.7051 2.877 1.643 1.929 1.8224 4.786 1.1074 7.25-1.107 2.929-4.1074 5.0723-7.3574 5.0723-3.071-0.036-5.9648-1.9293-6.9648-4.8223-0.893-2.285-0.429-5.2839 1-7.2129a8.37 8.37 0 0 1 4.2871-3c0.741-0.134 1.4884-0.19251 2.2226-0.16406zm-92.152 0.76759c-0.33177 0.0182-0.66512 0.0661-1 0.14648-2.214 0.357-4.2493 2.1782-5.0703 4.2852-0.643 1.964-0.43011 4.2497 0.71289 5.9277 1.178 1.679 2.9651 2.893 5.0371 3 2.607 0.286 4.9985-1.0696 6.3555-3.1406 1.393-2.072 1.0015-5.0374-0.10547-7.1094-1.407-1.9058-3.6073-3.2368-5.9297-3.1094zm92.035 0c-2.3226-0.12794-4.5216 1.1991-5.9277 3.0742-1.107 2.071-1.5004 5.0354-0.10742 7.1074 1.357 2.071 3.7504 3.4636 6.3574 3.1426 2.072-0.072 3.8562-1.322 5.0352-3 1.143-1.643 1.3578-3.9637 0.71484-5.9277-0.786-2.071-2.8223-3.893-5.0723-4.25-0.33488-0.0804-0.66821-0.12821-1-0.14648zm-91.617 1.082c0.35544 4e-3 0.71603 0.0287 1.082 0.0644l0.21484 0.21289c0.072 1.215-0.53516 2.2515-0.78516 3.3945-0.715-0.143-1.6433 0.64216-2.0723-0.21484-0.536-0.857-1.2497-1.6438-1.4277-2.7148 0.9105-0.5895 1.922-0.75555 2.9883-0.74219zm91.207 0c1.0748-0.0134 2.0989 0.15269 2.9824 0.74219-0.178 1.035-0.89273 1.8578-1.4277 2.7148-0.429 0.857-1.3223 0.0718-2.0723 0.21484-0.286-1.143-0.85811-2.1795-0.78711-3.3945l0.21485-0.21289c0.366-0.0357 0.73159-0.06 1.0898-0.0644zm-91.289 0.79101c-0.44874-0.0367-0.89775 0.15786-1.4062 0.13086-0.358 0.107-0.42884 0.57158-0.21484 0.89258 0.25 0.5 0.53558 1.5723 1.3926 1.0723 0.786-0.25 0.53473-1.3218 0.67773-1.9648-0.15175-0.0803-0.29964-0.11862-0.44922-0.13086zm91.365 0c-0.14958 0.0122-0.29942 0.0506-0.45117 0.13086 0.143 0.607-0.10742 1.7148 0.64258 1.9648 0.893 0.5 1.1777-0.57227 1.4277-1.0723 0.215-0.321 0.14411-0.78558-0.21289-0.89258-0.5085 0.027-0.95751-0.16756-1.4062-0.13086zm-88.277 0.4004c0.16247 0.0201 0.28998 0.13953 0.39648 0.30078-0.107 0.643-0.64089 1.2515-1.2129 1.6445-0.428 0.214-0.53574 0.74847-0.92773 0.85547v-0.35547l1.5703-2.4297c0.0625-0.0178 0.11967-0.0223 0.17383-0.0156zm85.217 0c0.0569-7e-3 0.11719-2e-3 0.17969 0.0156l1.5723 2.4297v0.35547c-0.393-0.107-0.53474-0.64147-0.92774-0.85547-0.571-0.393-1.1078-0.96653-1.2148-1.6445 0.0803-0.16125 0.21995-0.28072 0.39062-0.30078zm-92.16 0.68359c0.09547-4e-3 0.19744 0.0279 0.30469 0.11719l1.8223 2.3574c-0.357 0.107-0.64274-0.429-0.92773-0.5-0.608-0.464-1.2871-0.85658-1.7871-1.3926 0.08025-0.2145 0.30148-0.56877 0.58789-0.58203zm99.09 0c0.27291 0.0133 0.50213 0.36753 0.60938 0.58203-0.5 0.536-1.1801 0.96358-1.7871 1.3926-0.286 0.071-0.57074 0.643-0.92774 0.5l1.8203-2.3574c0.0983-0.0892 0.19418-0.12161 0.28515-0.11719zm-90.605 1.2617c0.572 0 0.5 0.678 0.75 1 0.107 1.071 0.24958 2.4642-0.35742 3.2852-1.107-0.357-2.2151-0.64426-3.2871-1.0723l0.07227-1.6777c0.964-0.464 1.8223-1.1432 2.8223-1.5352zm82.143 0c1 0.392 1.8573 1.0712 2.8223 1.5352l0.0703 1.6777c-1.107 0.428-2.2132 0.71526-3.2852 1.0723-0.607-0.821-0.46442-2.2142-0.35742-3.2852 0.25-0.322 0.179-1 0.75-1zm-92.215 0.75c1.214 0.214 2.3218 0.67731 3.4648 1.0703l0.03516 1.5703c-0.857 0.536-1.8216 0.89285-2.6426 1.4648-0.929 0.464-0.75069-0.85532-1.1797-1.3203-0.035-0.857-0.21373-2.0352 0.32227-2.7852zm102.21 0.0352c0.536 0.75 0.39342 1.893 0.35742 2.75-0.393 0.465-0.21484 1.7485-1.2148 1.3555-0.821-0.607-1.7856-0.92689-2.6426-1.4629l0.0352-1.5723c1.143-0.393 2.2508-0.85532 3.4648-1.0703zm-92.437 0.3086c-0.03658-5e-3 -0.08127-2e-3 -0.13477 0.0117-0.536 0.571-2.1428 0.14315-1.7148 1.5352 0.25 0.643 1.358 0.35869 2 0.67969 0.286-0.429 0.28584-1.1066 0.21484-1.6426-0.21875-0.12512-0.10916-0.55131-0.36523-0.58398zm82.754 0.0234c-0.2864 9e-3 -0.20142 0.43346-0.38867 0.55859-0.072 0.536-0.0712 1.1786 0.21484 1.6426 0.643-0.321 1.714-0.0347 2-0.67774 0.429-1.392-1.1797-0.964-1.6797-1.5-0.058-0.0178-0.10557-0.0248-0.14648-0.0234zm-91.506 0.86132c-0.17127 0.0217-0.33653 0.0729-0.48828 0.16211-0.25 0.429-0.07184 0.99985 0.03516 1.4648 0.357 0.893 1.1437-0.0718 1.6797-0.21485 0.536-0.142 0.39216-0.64215 0.28516-1.0352-0.429-0.2415-0.99792-0.44216-1.5117-0.37696zm100.21 6e-3c-0.5056-0.0568-1.0604 0.1566-1.5156 0.3711-0.107 0.357-0.25084 0.89315 0.28516 1.0352 0.536 0.143 1.3207 1.1078 1.6777 0.21485 0.072-0.429 0.28711-0.99985 0.0371-1.4648-0.15175-0.0892-0.31584-0.13733-0.48437-0.15625zm-95.914 0.32617c0.04012-9e-3 0.09494 9e-3 0.14844 0.0449 0 0.071-0.0013 0.14468-0.07227 0.17968-0.072 0.036-0.10658-0.0714-0.14258-0.10742 0-0.0715 0.02628-0.10831 0.06641-0.11719zm91.639 0c0.0359 9e-3 0.064 0.0457 0.082 0.11719-0.036 0.036-0.0735 0.14342-0.14453 0.10742-0.072-0.035-0.0703-0.10868-0.0703-0.17968 0.0535-0.036 0.0969-0.0538 0.13282-0.0449zm-89.813 1.5801c0.964 0.465 1.9642 0.96653 2.7852 1.6445 0.072 0.322-0.17647 0.42816-0.35547 0.53516-0.678 0.036-0.96569-0.78516-1.4297-1.0352-0.286-0.393-1.072-0.53653-1-1.1445zm88 0.0371c0.035 0.572-0.715 0.74958-1 1.1426-0.465 0.214-0.74874 1.071-1.4277 1-0.214-0.107-0.42842-0.214-0.35742-0.5 0.857-0.679 1.8202-1.2136 2.7852-1.6426zm-90.928 0.0723c-0.321 0.821-1.1777 1.5339-1.4277 2.4629-0.179 0.321-0.53627 0.357-0.82227 0.25-0.25-0.143-0.25084-0.39258-0.21484-0.64258 0.821-0.714 1.6078-1.4283 2.4648-2.0703zm93.857 0.0352c0.857 0.643 1.6428 1.3913 2.4648 2.0703 0 0.214 0 0.46442-0.25 0.60742-0.286 0.107-0.60911 0.0721-0.78711-0.21289-0.25-0.929-1.1057-1.6428-1.4277-2.4648zm-1.4199 0.19922c0.27675-5e-3 0.54339 0.0136 0.77539 0.1211 0.465 1 0.68053 2.143 0.89453 3.25-0.678 0.785-2 0.53626-3 0.32226-0.393-0.321-1.2517-0.17884-1.1797-0.96484l1.6797-2.7129c0.268 0.0175 0.55333-0.0111 0.83008-0.0156zm-91.053 0.0137c0.27675 9e-3 0.56062 0.0375 0.82812 2e-3l1.6797 2.7126c0.107 0.786-0.78669 0.64384-1.1797 0.96484-1 0.214-2.321 0.46274-3-0.32226 0.215-1.107 0.43053-2.215 0.89453-3.25 0.2325-0.1075 0.50059-0.11643 0.77734-0.10743zm0.57812 0.78711c-0.392 0.036-0.82116-0.0367-1.0352 0.32032 0.035 0.643-0.49916 1.3585-0.03516 1.8945 0.714 0 1.5718 0.0712 1.9648-0.46485-0.107-0.643-0.60853-1.143-0.89453-1.75zm89.895 0c-0.285 0.607-0.78653 1.107-0.89453 1.75 0.393 0.572 1.2498 0.46485 1.9648 0.46485 0.5-0.536-0.0712-1.2515-0.0352-1.8945-0.214-0.357-0.64216-0.28432-1.0352-0.32032z" fill="#00274c"/>
  <path d="m95 6.25c-49.036 0-88.75 39.75-88.75 88.75 0 49.036 39.714 88.786 88.75 88.75 49 0 88.75-39.714 88.75-88.75 0-49-39.714-88.75-88.75-88.75zm0 4.9297c46.286 0 83.82 37.534 83.82 83.82s-37.534 83.82-83.82 83.82-83.82-37.534-83.82-83.82 37.534-83.785 83.82-83.82zm-6.7852 2.5-0.5 0.5c-2.25 0.464-4.5714 0.71331-6.8574 1.0703-1.107 0.107-2.3927 0.53516-3.4277 0.28516-0.108 0.893 0.46331 1.6434 0.32031 2.6074h0.17969c0.214-0.643 0.46416-1.4629 1.2852-1.4629 0.857 0 2.4288-1.0371 2.9648 0.21289l1.6777 11.465c-0.036 0.5-0.678 0.46358-0.75 0.89258 1.322-0.286 2.7144-0.28684 4.1074-0.46484v-0.17773c-0.178-0.036-0.28669-0.14342-0.42969-0.10742-0.572-0.214-0.60547-0.786-0.85547-1.25l-1.3945-9.6426c0-0.607-0.28447-1.2508 0.14453-1.7148 1.035-0.214 2.142-0.57242 3.25-0.35742 0.357 0.214 0.46262 0.89469 0.89062 0.67969-0.035-0.857-0.42773-1.5354-0.42773-2.3574zm1.1055 0.32031c-0.107 0.036-0.28389 0.07016-0.21289 0.28516-0.036 0.285 0.28473 0.21416 0.42773 0.28516 1.321 1.929 2.821 3.4642 3.75 5.5352 1.75 1.964 0.85869 4.8223 1.1797 7.3223l-0.32227 0.53516c-0.214 0.322-0.78642 0.03584-0.85742 0.46484 1.571-0.286 3.2142-0.03558 4.7852-0.14258-0.25-0.393-1.0339-0.07184-1.2129-0.71484l-0.07227-5.7852c1.643-2.357 2.821-4.6434 4.75-6.8574 0.214-0.215 0.75-0.14284 0.75-0.46484a31.56 31.56 0 0 0-3.6777 0c0.25 0.25 0.96316 0.429 0.78516 1-0.857 1.643-1.8212 3.25-3.0352 4.75h-0.21484c-1.5-1.607-2.4627-3.2133-3.4277-5.0703-0.178-0.393 0.32158-0.64384 0.39258-0.96484a26.375 26.375 0 0 0-3.7871-0.17773zm-13.213 2.0352c-1.357 0.428-2.8927 0.46527-4.1777 1.0723v0.10742c0.321-0.071 0.642 0.179 1 0.25 1.285 2.572 1.4986 5.5712 2.3906 8.2852l0.07227 0.71484c0.071 1.465 1.7871 3.3566 0.03711 4.3926v0.14258c1.321-0.036 2.4642-0.57016 3.7852-0.78516 0.215-0.178 0.71484-0.03584 0.71484-0.46484-0.5-0.107-1.1805 0.03669-1.3945-0.57031-1.143-4.072-2.1415-8.1793-3.1055-12.322 0.107-0.357 0.42689-0.71511 0.71289-0.78711zm39.15 0.69727c-0.32847-0.0041-0.66406 0.01248-1.0078 0.05273-2.571 0.071-4.7868 1.9284-5.9648 4.1074-1.036 2.071-0.82185 4.7489 0.28515 6.7129 1.108 1.857 3.0735 3.2856 5.1445 3.6426l-0.0352 0.03711c1.142 0.321 2.4997 0.28516 3.6777 0.03516 0.179-0.214 0.42789 0.21527 0.46289-0.17773 2.358-0.464 4.358-2.3934 5.25-4.6074 1.072-2.715 1e-3 -5.572-1.8906-7.5-1.6879-1.2189-3.6226-2.2737-5.9219-2.3027zm-0.0703 1.1641c0.60725-0.0045 1.2242 0.10241 1.7422 0.31641h0.39062c0.572 0.393 1.1801 0.74984 1.7871 1.2148 1.75 1.964 1.9643 4.6063 1.3223 7.0703-0.393 1.321-1.5734 2.6805-2.8594 3.1445-1.571 0.714-3.714 0.428-5-0.75-2.071-1.572-2.4986-4.1433-2.1406-6.5723 0.428-1.607 1.3913-3.5013 3.0703-4.0723 0.482-0.232 1.0802-0.34706 1.6875-0.35156zm-47.295 0.67383-0.07227 0.35742c-0.178 0.392-0.571 0.53584-1 0.46484-2.142-0.464-3.9993 0.53573-5.3203 2.1777-0.679 1.143-0.929 2.9653 0 4.0723 0.286 0.536 0.71358 0.99973 1.1426 1.1777 2.393 1.893 6.2873 0.71527 8.3223 3.3223 0.215 0.357 0.35547 0.85589 0.10547 1.2129-0.357 0.964-1.3207 1.2868-2.1777 1.4648-2.143 0.429-3.679-1.4288-5-2.7148l-0.10742 0.10742c0.357 1.143 1.107 2.1428 1.5 3.2148 0.143 0.285 0.10869 0.78558 0.42969 0.89258l0.39258-0.35742c2.072 0.036 4.3212-0.32058 6.0352-1.6426 0.75-0.964 1.2871-2.0716 1.0371-3.3926-1.072-3.215-4.7507-2.965-7.4297-3.75-1.071-0.536-2.7504-0.96416-2.8574-2.5352 0.071-0.964 0.92911-1.6445 1.7871-1.8945 2.035-0.429 3.964 0.78753 5.25 2.3945 0.214-0.572-0.32338-1.1437-0.60938-1.6797-0.607-0.893-0.67773-2.1426-1.4277-2.8926zm59.428 2.1445c-0.178 0.465 0.39285 0.57073 0.46485 0.92773-1.429 3.893-3.3928 7.5364-4.9648 11.357-0.25 0.643-1 0.64342-1.5 0.60742 0.858 0.572 1.9664 0.82073 2.8594 1.4277 0.5 0.214 0.92662 0.60742 1.3906 0.60742-0.285-0.464-0.85715-0.82089-0.78515-1.4629 0.643-1.643 1.3583-3.2871 2.3223-4.7871 0.857 0.25 1.6779 0.571 2.4629 1 0.679 0.536 1.9998 0.89411 1.7148 2.0371l1.6445-2.4648 0.0352-0.32227c-0.178-0.036-0.28653 0.03558-0.39453 0.14258-1.785 0.214-3.3909-0.85573-4.7129-1.9277 0.072-1.393 1.107-2.5706 1.5-3.8926 1.322-1.714 2.7504 0.53431 4.1074 0.82031 1.072 0.607 1.4277 1.9293 1.4277 2.8223l0.5-0.67773c0.214-0.608 0.78684-1.1433 0.71484-1.8223-2.928-1.607-5.7871-2.9636-8.7871-4.3926zm-72.52 4.668c-3.2084 0.08828-5.7238 3.1904-8.3359 4.9023l0.92772-0.035156c2.678 3.25 5.3206 6.7133 7.8926 10.07 0.393 0.393-0.072 0.93011 0 1.2871 1.143-0.893 1.8218-1.464 2.9648-2.25l-0.57031 0.03516c-1.215-1.286-1.9664-2.6419-3.1094-3.9629l-0.21289-0.53711c0.357-0.322 0.74873-0.64216 1.1777-0.78516 1.893 1.143 3.4657 1.9286 5.6797 2.3926 1.465-0.107 3.3553 0.42984 4.0703-1.0352-0.286-0.321-0.53558 0.179-0.89258 0-2.714-0.25-4.9643-1.5358-7.0723-3.2148l-0.070312-0.21485c0.571-0.643 1.1074-1.429 1.3574-2.25 0.322-1.107-0.03684-1.9637-0.46484-2.9277l-1-1c-0.82369-0.35494-1.6014-0.49498-2.3418-0.47461zm-1.5371 1.6699c0.81202 0.0066 1.389 0.21519 2.166 0.80469 0.714 0.893 1.3905 1.8212 1.1055 3.0352-0.25 1.357-1.6066 2.1776-2.6426 2.8926h-0.5c-1.25-1.536-2.2856-2.857-3.3926-4.5 0.214-1.072 1.5004-1.6417 2.3574-2.1777 0.33925-0.03575 0.63558-0.05689 0.90625-0.05469zm89.271 2.4824c0.357 0.464 0.89453 1.035 0.89453 1.75-1.965 2.535-3.5358 5.1784-5.7148 7.6074-0.821 0.928-1.7508 2.7137-3.2148 2.4277l0.03515 0.17969a15.365 15.365 0 0 1 2.6445 1.9648l0.32031 0.07031c-0.357-0.393-0.53669-0.85573-0.42969-1.4277 1.822-2.428 3.7148-5.0004 5.7148-7.3574 0.107-0.143 0.32226-0.03558 0.32226 0.10742-0.714 3.822-1.4276 7.679-2.1426 11.5l0.10547 0.17773c1.75-0.286 3.3231-1.1786 5.0371-1.6426 0.643-0.25 1.3917-0.39216 1.9277-0.78516 1.107-0.214 2.0714-0.67758 3.1074-0.89258l0.10742 0.14258c-1.821 2.143-4.0368 4.393-6.2148 6.25-0.536 0.143-1.072-0.07227-1.5-0.32227 0.857 1.107 2.0008 2.0725 2.9648 3.1445l-0.21484-0.71484c2.821-2.964 5.8587-6.2502 8.9297-9.0352 0.607-0.572 1.0343 0.32031 1.5703 0.32031-0.536-0.964-1.3928-1.7492-2.2148-2.5352l-0.53515-0.03516c-3.179 1.107-6.2858 2.428-9.4648 3.5-0.285 0.107-0.67662 0.357-0.89062 0 0.607-3.822 1.4633-7.643 2.0703-11.5-0.786-1.25-2.1438-1.9305-3.2148-2.8945zm-47.535 1.8945c-35.107-1e-6 -63.57 28.461-63.57 63.568 0 35.107 28.463 63.572 63.57 63.572s63.57-28.463 63.57-63.57-28.463-63.57-63.57-63.57zm-51.465 0.46289c-2.25 2.071-4.3557 4.2497-6.4277 6.4277v0.28516c0.357-0.071 0.78489-0.32058 1.2129-0.14258 2.965 2.643 5.6094 5.5727 8.3594 8.4297l0.17773 0.89258c-0.036 0.393-0.60784 0.78431-0.21484 1.0703 2.071-2.036 4.7511-4.1427 7.0371-6.1777l-0.39453-2.2148c-0.857 1.036-1.3553 2.6074-2.5703 3.6074-0.643 0.608-1.4295 1.429-2.3945 1l-3.2852-3.2148v-0.28516c0.785-0.964 1.6795-1.6422 2.6445-2.5352 0.464-0.215 0.928 0.17816 1.25 0.28516v-0.17773c-0.822-0.75-1.5375-1.6437-2.1445-2.4297-0.036 0.286 0.03542 0.53516 0.10742 0.78516-0.822 1.071-1.8933 2.4294-3.0723 3.1074l-3.5-3.5703-0.070312-0.35742c1.321-1.643 2.9633-3.3576 5.0703-3.1426-0.428-0.607-1.0352-1.4286-1.7852-1.6426zm51.195 1.5547c0.39192 0.02503 0.73294 0.26614 1.0547 0.58789a60.057 60.057 0 0 1 12.465 1.4277c0.536-0.285 1.0364-0.32116 1.3574 0.21484 0.036 0.035 0.0363 0.07142 0.0723 0.10742 3.892 0.928 7.6067 2.2847 11.178 3.9277 0.464-0.143 0.82242-0.10742 0.85742 0.39258a63.197 63.197 0 0 1 9.2148 5.5723c0.571-0.108 1.035-0.072 1 0.25 0 0.107-0.0727 0.21331-0.17969 0.32031a63.104 63.104 0 0 1 7.9297 7.1797c1.035 0.035 1.8572 0.49931 1.7852 1.8203 0 0.036-0.0352 0.10853-0.0352 0.14453a58.684 58.684 0 0 1 6.2852 8.7852c0.715 0.178 1.1782 0.46484 1.0352 0.96484-0.036 0.143-0.143 0.28574-0.25 0.42773a60.902 60.902 0 0 1 4.5352 10.5c0.428 0.036 0.821 0.143 0.75 0.75-0.036 0.25-0.14132 0.42842-0.32032 0.60742a60.755 60.755 0 0 1 2.0352 9.5703h0.10742c0.143 0 0.17774 0.03711 0.17774 0.03711 0.214 0.071 0.42842 0.214 0.35742 0.5-0.072 0.285-0.24889 0.57142-0.46289 0.85742 0.214 2.178 0.35547 4.3926 0.35547 6.6426 0 33.678-27.322 61.001-60.965 60.965-33.713 0-61.035-27.32-61.035-61.037 0-2.214 0.14342-4.3932 0.35742-6.5352-0.464-0.322-0.67789-0.75026-0.21289-1.3223 0.142-0.143 0.28473-0.28558 0.42773-0.39258a60.446 60.446 0 0 1 2.6777-11.357c-0.072-0.107-0.10547-0.25042-0.10547-0.35742 0-0.214 0.17773-0.39231 0.42773-0.57031a59.695 59.695 0 0 1 4.6777-10.035c0-0.072-0.03516-0.179-0.03516-0.25-0.036-0.429 0.24958-0.643 0.64258-0.75 1.786-2.964 3.8574-5.7504 6.1074-8.3574-0.321-0.607-0.10784-0.89369 0.53516-1.1797 0.25-0.107 0.5-0.21316 0.75-0.28516a64.268 64.268 0 0 1 8.5352-7.6426c-0.035-0.358 0.03737-0.64326 0.35938-0.82226 0.285-0.143 0.642-0.17758 1-0.14258 3.071-2.178 6.3905-4.0354 9.8555-5.6074 0.071-0.25 0.21553-0.42842 0.39453-0.60742 0.357-0.286 0.78389-0.28447 1.2129-0.10547a63.54 63.54 0 0 1 10.072-3.1797c0.143-0.321 0.35531-0.57116 0.82031-0.53516a1.174 1.174 0 0 1 0.57227 0.25 59.406 59.406 0 0 1 10.463-1.1426c0.215-0.25 0.465-0.46611 0.75-0.53711 0.143-0.04475 0.27952-0.05913 0.41016-0.05078zm-0.15039 1.2031c-0.23 0.02726-0.48276 0.22367-0.75977 0.66992-0.892 1.822-1.892 4.1095-2 6.3945a32.5 32.5 0 0 1 3.25-0.14453c0.965-0.035 1.8944 0.0014 2.8594 0.10938-0.25-1.715-1.0723-3.3945-1.8223-4.8945-0.348-0.777-0.83734-2.2166-1.5273-2.1348zm13.67 2.0645c-1.821 1.715-3.1438 3.965-4.2148 6 2.071 0.572 4.0367 1.2858 5.9297 2.2148 0.25-2.393-0.28515-4.6444-0.78515-6.8594-0.286-0.464-0.21569-1.3905-0.92969-1.3555zm-25.449 0.29883c-0.1005-0.01327-0.22053 0.09392-0.30078 0.20117-0.429 2.143-1.4996 4.7137-0.39258 6.9277 1.5-0.679 3.0707-1.1793 4.6777-1.5723-1.143-1.821-2.4996-3.785-3.8926-5.5-0.02675-0.0355-0.0583-0.05222-0.0918-0.05664zm-46.193 2.2715c-0.857 0.893-1.8223 1.7489-2.5723 2.7129 0.5-0.036 1.035-0.49873 1.5-0.17774a169.8 169.8 0 0 1 4.8574 8.5723c-0.072 0.143-0.21426 0.14189-0.32227 0.21289l-7.1406-1.4258 0.03516-0.03516-2.6777-0.64258c-0.75-0.25 0.07116-0.75069-0.21484-1.1797-0.5 0.25-0.71331 0.89242-1.0703 1.3574-0.464 0.75-1.2867 1.464-1.4297 2.25 0.286-0.143 0.60758-0.24958 0.89258-0.39258 4.6424 0.99987 9.5706 1.7853 14.248 2.7852l-0.0332 0.0332h0.78516l-0.17969-0.64258-6.6426-11.643-0.21289-0.71484c0-0.393 0.46373-0.71331 0.17773-1.0703zm34.477 0.6582c-0.11162-0.0135-0.20967 0.04017-0.26367 0.20117 0.215 1.821 0.536 3.6434 0.5 5.6074 0.322 1.321 0.82158 2.893 1.8926 3.75a28.176 28.176 0 0 1 3.8574-2.8223c-1.392-2.286-3.1426-5.1782-5.6426-6.5352-0.1075-0.107-0.23212-0.18767-0.34375-0.20117zm48.523 1.5566c-2 1.393-3.678 3.0007-5.25 4.9297-0.107 0.214-0.42773 0.53516-0.42773 0.78516a31.035 31.035 0 0 1 3.8555 3c0.321-0.428 0.60826-0.85742 0.82226-1.3574 0.714-1.75 1.2503-4.6427 1.3223-7.1777-0.036-0.179-0.21527-0.17969-0.32227-0.17969zm39.107 4.1055c0.215 0.536 0.14216 1.2143-0.46484 1.5723-3.071 2.321-5.9282 5.0343-9.0352 7.3203-0.535 0.143-1.0718-0.07058-1.4648-0.39258a103.51 103.51 0 0 1 2.4648 3.4648l0.28516 0.10742c0.071-0.465-0.39231-1.0716 0.17969-1.3926l9.1406-7.3926c0.572-0.607 0.965 0.28489 1.5 0.21289v-0.17774a61.631 61.631 0 0 1-2.4629-3.3223zm-63.645 0.68164c-8.785 0-16.679 3.857-22.072 10h44.145c-5.393-6.143-13.286-10-22.072-10zm-34.494 0.22266c-0.15612-9e-3 -0.29102 0.04373-0.29102 0.24023 0.607 1.179 0.89384 2.036 1.2148 3.75 0.429 2.393 1.571 4.8922 4 5.7852h1.5a36.26 36.26 0 0 1 2.5-3.1777c-0.5-0.357-1.179-0.71358-1.75-0.89258-2.786-1.321-3.786-4.6083-6.75-5.5723-0.0895-0.0535-0.2677-0.12381-0.42383-0.13281zm68.316 0.84766c-2.857 1.393-5.2868 4.1794-7.7148 6.3574 0.678 0.822 1.3578 1.6773 1.9648 2.5703h2.9277c0.75-0.465 0.67816-1.0712 1.0352-1.7852 0.643-2.321 0.96442-4.7507 1.8574-6.9297zm-102.57 5.1777c-0.857 1.035-1.4265 2.321-2.1055 3.5 0.429 0.107 0.643-0.67858 1.25-0.39258 1.322 0.571 2.5345 1.3922 3.8555 2.0352 2.286 1.535 4.822 2.7843 7 4.5703 0.25 0.286-0.25 0.50111 0 0.78711 0.786-0.965 1.2498-2.2161 1.9648-3.2871v-0.28516c-0.215 0-0.286 0.28642-0.5 0.35742-0.322 0.072-0.75 0.14174-1-0.07227-3.357-1.893-6.9275-3.9987-10.355-6.1777-0.215-0.357 0.107-0.71416 0-1.0352zm134.93 1.1445c-0.35011-0.01698-0.70822-0.0069-1.0742 0.0332-2.715 0.286-5.3944 2.036-6.6094 4.5-1.178 2.357-0.78431 5.2858 0.92969 7.2148 1.143 0.785 2.1437 2.4993 3.6797 1.5703 0.607-0.429 1.4269-0.49931 1.9629-1.0703-0.286-0.25-0.60658 0-0.89258 0-1.75 0.214-3.393-0.57158-4.25-2.1426-0.357-1.072-0.75084-2.5 0.0352-3.5 1.821-3.036 5.0712-4.6433 8.5352-4.0723 1.286 0.322 2.1433 1.4646 2.5723 2.6426 0.178 1.643-0.14189 3.5-1.4629 4.75 0.928-0.214 1.7486-0.74958 2.6406-1.1426 0.608-1.607 0.10911-3.5703-0.46289-5.0703-1.1252-2.1254-3.1528-3.594-5.6035-3.7129zm-21.969 0.71289c-1.715 0.321-3.6428 1.2504-4.9648 2.3574l2.1797 2.0703 3-2.7852c0.357-0.357 0.50069-0.67747 0.67969-1.1055 0.035-0.536-0.57353-0.43011-0.89453-0.53711zm-87.652 0.2168c-0.48103-0.02125-0.89317 0.087125-1.1699 0.39062 0.107 1.036 2.2504 2.7856 3.3574 3.6426l2.1426-2.0352c-0.83025-0.696-2.887-1.9343-4.3301-1.998zm-28.918 4.0703c-0.464 1-1.035 2.0695-1.5 3.1055 1.143-1.179 2.393 0.28584 3.5 0.46484 1.75 0.964 3.7148 1.4647 5.4648 2.4297 0.25 0.142 0.60673 0.31962 0.67773 0.64062-3.071 1.429-6.321 2.1433-9.5 3.3223-1.071 0.357-2.1777 0.64384-3.1777 1.2148-0.358 1-0.92927 2.0712-1.0723 3.0352 0.5-0.5 0.92773-1.2504 1.6777-1.1074 2.107 0.607 4.0004 1.2144 6.1074 1.8574 1.428 0.464 2.75 1.1066 4.25 1.3926l-0.03516 0.03516c0.286 0.036 0.64342 0.0014 0.85742 0.35938 0.679 0.035 0.78473 0.81989 0.92773 1.2129 0.25-1.179 0.74973-2.4989 0.92773-3.4629-0.321 0.285-0.535 0.71416-1 0.78516-3-0.643-5.7836-1.8218-8.6406-2.7148l-0.28711-0.32031c0.393-0.429 1.1427-0.50138 1.6777-0.85938 0.858-0.178 1.8235-0.46262 2.6445-0.89062 1.857-0.393 3.6066-1.143 5.3926-1.75 1.25-0.393 2.5707-0.75153 3.6777-1.3945 0.143-0.215 0.10827-0.53584-0.17773-0.71484-2-0.785-3.8581-1.7486-5.7871-2.6406-0.357-0.143-0.78347-0.358-1.1055-0.5-1.714-0.393-3.1443-1.5011-4.8223-2.0371l-0.46289-0.39258zm147.14 6.0684c-0.286 0.179-0.10658 0.50153-0.39258 0.64453-3.285 1.607-7.1434 2.643-10.607 4.25-0.643 0.071-1.6776 0.96331-2.1426 0.07031 0.357 1.215 0.822 2.6066 1.5 3.6426 0.107-0.036 0.0343-0.14189 0.0703-0.21289-0.107-0.536 0.21442-0.96469 0.60742-1.1797 1.643-0.535 3.2513-1.464 4.8223-1.75 0.179 0.143 0.28432 0.286 0.32032 0.5 0.75 2.179 1.6788 4.2852 2.2148 6.5352-1.893 0.714-3.7856 1.6438-5.8926 1.7148-0.286-0.214-0.53573-0.393-0.67773-0.75-0.072 0.036-0.21485-0.03473-0.21485 0.07227 0.607 1.214 0.60532 2.6066 1.0703 3.8926h0.21486c-0.214-1.465 1.4996-0.89326 2.1426-1.5723 1.571-0.25 3.143-0.92716 4.75-1.2852l0.21484-0.21484c1.643-0.25 3.1422-1.0699 4.7852-1.2129 0.678-0.214 0.85658 0.46289 1.3926 0.71289-0.143-1.393-0.75-2.5706-1-3.8926-0.286 0.036-0.14285 0.53642-0.46485 0.60742-1.464 0.786-3.1067 1.0352-4.6777 1.5352l-0.21289-0.17774c-0.858-2.322-1.6801-4.6072-2.2871-7.0352 1.357-0.964 3-1.2875 4.5-1.8945 0.428-0.107 0.85673 0.10784 1.1777 0.46484l0.10938-0.14258c-0.536-1.071-0.75027-2.3223-1.3223-3.3223zm-125.37 0.001953c-0.3215 0-0.61634 0.0535-0.77734 0.25 1.107 1.429 2.5712 2.5706 4.2852 3.1426 3.321 0.964 5.6062 3.8943 8.7852 5.3223 0.25 0 0.893 0.39284 2 0.46484v-1.8945c0-1-0.14147-1.9275-0.35547-2.8555-1.179-0.536-4.965-2.1801-6.75-2.7871-0.322-0.214-4.5-1.3573-6.25-1.5723-0.268-0.0175-0.616-0.07031-0.9375-0.07031zm100.72 0.25c-1.821 0.214-3.5352 0.50084-5.2852 0.96484v0.10547c-1.929 0.215-3.4994 1.2511-5.3574 1.5371-0.428 0.179-1.678-4.22e-4 -2.5 0.14258-0.464 1.321-0.78515 2.75-0.78515 4.25v3.3203c1.035-0.142 2.7133-0.89047 3.5703-1.3555 1.536-1.285 2.7148-2.7865 4.2148-4.1445 2.572-1.321 5.2492-2.392 7.5352-4.25l0.10742-0.35547c-0.464-0.143-1-0.14384-1.5-0.21484zm-72.07 6.9297a5.439 5.439 0 0 0-0.17773 3.2852c-0.393 0.072-0.53542 0.32184-0.85742 0.46484-0.928 0.392 0.07089 1.8199-1.0371 1.9629-0.214 0.321-0.60589 0.92884-0.21289 1.2148l4.4629 0.03516 0.21484-0.14258c0.214-0.571-0.46331-0.75-0.57031-1.25 0.215-0.214 0.57184-0.214 0.71484-0.5 0-0.357 0.25-0.74931 0-1.0703-0.286-0.465-0.71527-0.85869-1.3223-0.67969 0.143-0.75 0.07242-1.3562-0.14258-2.0352-0.357-0.464-0.46527-1.0712-1.0723-1.2852zm21.387 0.85352c-0.59373 0.03394-1.2109 1.1081-1.457 1.5742-0.071 0.572-0.39174 1.2489 0.07227 1.7129l1.8574 0.03711c0.357-0.214 0.21331-0.82227 0.57031-1.0723-0.821-0.357 0.24984-0.965-0.28516-1.5-0.22344-0.56938-0.48793-0.76738-0.75781-0.75195zm-53.221 2.1953c-0.33428 0.01003-0.67519 0.02989-1.0234 0.05664-0.5 0.035-1.1062 0.10716-1.2852 0.53516a15.918 15.918 0 0 0 2.3926 1.5371c4.893 2.572 9.9288 5.7143 17.465 5.8223v-5.1094l-1.4277 0.28516c-4.715 0.643-8.8945-1.8214-13.145-2.8574v2e-3c-1.0178-0.24075-1.9737-0.30158-2.9766-0.27148zm-24.666 0.0918c-0.322 0.893-0.53473 1.9665-0.67773 2.8945l0.78516-0.5c2.607 0.143 5.1438 1.179 7.7148 1.75 0.179 0.25 0.64284-0.07184 0.71484 0.28516 1.178 0.429 2.6055 1.0004 3.1055 2.3574 0.285 0.75 0.17953 1.4989-0.10547 2.2129-0.429 0.715-1.0371 1.2515-1.7871 1.3945-3.607 0.536-7.4293-0.143-11.072-0.5-0.428-0.107-0.28516-0.64316-0.53516-0.78516-0.322 1.214-0.28584 2.5339-0.46484 3.7129l0.46484-0.46289c2.75 0.25 5.2513 0.49862 8.0723 0.64062l-0.03711 0.03711c1.929-0.107 3.965 0.42942 5.5-0.89258 1.5-1.214 1.858-3.0013 1.75-4.8223 0.036001-1.536-1.1773-2.7863-2.3203-3.5723-3.357-1.357-6.964-2.1063-10.5-3.0703-0.393-0.036-0.42942-0.53669-0.60742-0.67969zm75.393 1.5352-0.17773 0.21484c1.072 0.679 2.8559 0.64327 3.9629 0.07227-1.214-0.25-2.5712 0.06989-3.7852-0.28711zm57.592 0.14453c-1.8467-0.05166-3.7887 0.30417-5.4492 0.35742-3.215 0.893-6.8574 1.3224-10.107 1.3574-0.678 0.072-2.1083-0.107-2.8223 0v6.0703l0.89453-0.035156c1.25-0.071 2.2496-0.71484 3.3926-0.96484 1.857-1.286 4.1773-1.6055 6.3203-2.3555 2.857-0.5 5.8216-0.82338 8.1426-2.6094 0.571-0.428 1.4647-0.85547 1.4297-1.6055-0.5805-0.13375-1.1852-0.19762-1.8008-0.21484zm-33.295 0.62305c-0.13747 0.0039-0.2832 0.03184-0.43945 0.08984-1.286 0.072-2.4279 0.82116-2.9629 2.0352 0.964 0.714 2.4277 0.71469 3.6777 0.67969 0.464 0.607-0.28642 1.2843-0.60742 1.8203-0.571 0.714-1.6063 1.3221-2.0703 2.0371 0.071 0.178 0.28362-4.22e-4 0.39062 0.14258l-0.0703 0.07031c0.143-0.071 0.46442 0.07142 0.35742-0.14258 1.107 0.179 1.7487-0.71289 2.6777-0.96289 0.214 0.107 0.17968 0.321 0.17968 0.5-0.535 1-0.32253 2.3563 0.10547 3.3203 0.108 0.179 0.25027 0.57116 0.57227 0.53516 0.393-2.179 0.678-4.6422 0-6.7852 0.607-0.75 1.5723-1.5008 1.5723-2.4648h-0.85742c-1.0001 0.21875-1.5631-0.90215-2.5254-0.875zm-23.617 0.55469c-0.285 0.25-0.25153 0.67858 0.10547 0.89258 0.715 0.25 1.5734 0.21458 2.3594 0.14258 0.214-0.035 0.678-0.10658 0.5-0.39258h-0.03711c0.178-0.607-0.429-0.28542-0.75-0.35742-0.607-0.357-1.4277-0.25016-2.1777-0.28516zm-20.24 1.541c-1.0982-0.03125-2.2062-0.0047-3.3672 0.17383-0.143 0.143-0.46374 0.39342-0.17773 0.60742 1.5 0.786 3.4653 0.17816 5.0723 0.53516 0.929-0.072 2.107 0.10827 3-0.17773 0.286-0.893-0.96484-0.71484-1.2148-0.96484-1.125-0.0535-2.2142-0.14258-3.3125-0.17383zm23.945 0.39258c-0.8035 0.04025-1.6332 0.20891-2.4902 0.06641-0.072 0.142 0.178 0.39131 0 0.57031-1.893 0.786-2.429 3-3.5 4.5-0.5 1.143-2.0718 0.43053-2.9648 0.39453-0.143 0.071-0.42816 0.214-0.53516 0 1.75-1.822 2.9273-4.143 5.3203-5.25 0.464-0.036 0.92969-0.03642 1.4297-0.10742v-0.14258c-1 0-1.9661-0.072-2.7871 0.5-1.75 1.714-3.286 3.5703-5 5.0703l0.17773 0.17969c4.465 0.607 9.2514 0.24847 13.609 0.35547v0.001949c1.357-0.143 2.9625 0.07142 4.1055-0.39258-0.322-0.321-0.71374-0.75084-1.1777-0.96484l-3.8574-4.0723c-0.75-0.6605-1.5266-0.74923-2.3301-0.70898zm-0.21484 0.31055c0.68972-0.0135 1.421 0.51453 2.0098 0.86328 1.322 0.785 2.1782 2.2863 3.2852 3.3223 0.286 0.322 0.85658 0.21289 0.89258 0.71289l-0.17774 0.10938c-1.107 0.142-2.1438 0.24862-3.2148 0.14062-0.929-1.785-1.8578-3.5707-3.4648-4.9277 0.21425-0.15175 0.44002-0.2162 0.66992-0.2207zm-1.3906 0.19727c0.7865-0.02289 1.2559 1.3936 1.8652 1.916 0.321 0.964 1.071 1.7144 1.5 2.6074 0.035 0.214-0.03584 0.39384-0.21484 0.46484l-3.2852-0.03711c-0.108-1.464 0.535-2.8905 0-4.3555-0.429 0-0.21638 0.49873-0.35938 0.67773-0.214 0.964-0.53431 1.8223-0.57031 2.8223-0.107 0.393 0.28558 0.786-0.10742 1-0.75 0.072-1.7492 0.14284-2.5352-0.03516 0.357-1.858 1.6074-3.6091 3.1074-4.7871 0.22106-0.1875 0.41811-0.26815 0.59961-0.27344zm-22.949 1.1211c-0.13231-0.0078-0.26639-8e-3 -0.40039 0.0098-0.357 0.143-0.10742 0.46484-0.10742 0.71484 0.536 0.965 0.78626 2.0703 1.5723 2.8203 0.464-0.643 0.21416-1.7137 0.28516-2.4277 0.715 0.214 1.465 0.42858 2.25 0.64258 0.25-0.429-0.17816-0.821-0.28516-1.25-0.393-0.75-1.4288-0.429-2.2148-0.5-0.321 0.10725-0.70267 0.01377-1.0996-0.0098zm102.53 0.43945c-0.214 0.357 1e-3 0.89062-0.46289 1.1406-0.893 0.179-1.9653 0.53711-2.8223 0.53711l0.0352 0.03516a184.41 184.41 0 0 1-9.25 1.7148l-0.50004-0.35743c-0.286-0.214-0.17816-0.67816-0.53516-0.78516 0.143 1.679 0.572 3.2498 0.75 4.9648h0.0352c0.214-0.465-0.036-1.2498 0.5-1.4648 4.107-0.821 8.0718-1.5 12.215-2.25 0.607-0.035 0.35658 0.78447 0.89258 0.85547l-0.57031-4.1055zm-99.963 2.2852c-0.25 0.572-0.49984 1.2135-0.21484 1.8555 0.822 0.072 1.5363 0.536 2.3223 0.5 0.071-0.642-0.10616-1.3196-0.28516-1.8906-0.5-0.393-1.2153-0.28584-1.8223-0.46484zm37.713 0.60547c-0.179 0.179-0.57227 0.17858-0.82227 0.39258-1.821 0.5-3.5339 1.5718-5.4629 1.4648a2.338 2.338 0 0 0-1.1074 0.17774c-3.964 0.286-7.6797 0.35658-11.68 0.39258l-0.14062-0.10547c-2.286-0.179-4.8234-0.10811-7.1094-0.28711l-0.10547-0.14258c-2.893-0.214-5.5727-0.785-8.1797-1.75-0.429 0.643-0.21484 1.5718 0.03516 2.2148 0.286 0.107 0.60869-0.179 0.92969 0v0.17774l-0.85742 0.03711c0.25 0.893 1.3206 0.21374 1.8926 0.67773-0.036 0.25-0.39258 0.24984-0.39258 0.21484l0.03711 0.03516-0.53711 0.17774c0.321 0.286 0.89427 0.21553 1.3223 0.14453 0.107 0.036 0.32116 0.10616 0.28516 0.28516-0.143 0.178-0.357 0.14216-0.5 0.28516 0.036 0.036 0.07016 0.03558 0.03516 0.14258 0.214 0.143 0.60716-0.07142 0.78516 0.14258l-0.35547 0.46484c0.286-0.035 0.57116 0.03669 0.78516 0.17969-0.429 0.25-0.857 0.14258-1.25 0.39258 0.571 0.143 1.429-0.03558 2 0.10742-0.107 0.536-0.78558 0.14231-0.89258 0.57031 0.536 0.215 1.107-0.49958 1.5-0.14258-0.107 0.322-0.50042 0.28627-0.60742 0.57227 0.357 0.214 0.92942 0.03574 1.3574 0.17773-0.786 0.465-1.9996 0.57184-2.8926 0.21484 0.286-0.107 0.53447-0.28711 0.85547-0.28711-0.357-0.25-1.25 0.03642-1.75-0.14258 0-0.536-0.71247-0.14274-0.85547-0.67774 0.107-0.215 0.35547-0.10716 0.35547-0.28516-0.035-0.036-0.03347-0.03711-0.10547-0.03711-0.285 0.143-0.67953 0.03711-0.89453-0.21289 0.108-0.214 0.35911-0.10784 0.53711-0.21484 0-0.358-0.39427 8.44e-4 -0.57227-0.28516-0.036-0.643-0.857-0.39342-1-0.85742 0.357 0 0.785-0.14258 1-0.39258-0.286-0.143-0.74873 0.10616-0.92773-0.21484-0.214-0.965-1.3583-0.78558-2.0723-1.1426-0.107 0.107-0.32047 0.03389-0.35547 0.21289 1.25 2.071 3.6059 3.9294 5.4629 5.3574 1.107 1.322 2.6083 0.32158 4.0723 0.64258 0.322-0.071 0.85547-0.03558 1.1055 0.10742l-0.21289 0.35742c0.107 0.036 0.28558-0.03584 0.39258 0.03516 0.607 0.143 1.3202-0.03558 1.7852 0.35742-0.929 0.572-2.1413 0.14369-3.0703-0.07031-0.035-0.286 0.39131-0.07158 0.32031-0.39258-0.786-0.214-1.5716-0.07353-2.3926-0.14453 1.571 1.714 4.3221 0.893 6.5371 1.25l0.3203 0.2871c-0.036 0.107-0.14384 0.03516-0.21484 0.03516-0.429 0.5-1.0356-0.25016-1.3926 0.21484 1.678 0.393 3.6793 0.46358 5.3223 0.39258 0.607-0.143 1.25 0.10716 1.75-0.21484-0.785-0.143-1.8223 0.03627-2.5723-0.17774-0.75-0.215-1.5709 0.21331-2.2129-0.17969 1.5-0.464 2.964 0.28711 4.5-0.21289 0.785-0.036 1.5699-0.17942 2.2129 0.14258l-0.14258 0.17773c-0.429 0-0.857 0.17816-1.25 0.28516 1.25 0.321 2.4647-0.179 3.6797 0l0.28516-0.28516c-0.321-0.107-0.75169-0.03516-0.92969-0.28516 0.25-0.179 0.50084 0.03584 0.71484-0.28516l3.1797-0.17969c0.214-0.035 0.71373-0.03516 0.67773-0.28516l-2.6777-0.28516c-0.5-0.143-1.0367 0.14189-1.4297-0.28711l0.10742-0.14258a35.56 35.56 0 0 0 4.3574-0.17774l0.14258-0.14258c-0.464-0.143-0.99958-0.28753-1.3926-0.64453 1.679-0.357 3.3926-0.03489 5.1426-0.21289l0.17774-0.17969c-0.786-0.214-1.5705-0.24958-2.3555-0.39258-0.322-0.035-0.78753-0.03584-0.89453-0.46484 1.571-0.036 3.5015-0.03531 5.1445-0.32031 0.392-0.25 0.99973 0.28516 1.1777-0.21484-1.25-0.214-2.928 0.07116-4-0.71484 2.214 0 4.5004-0.17816 6.6074-0.53516l0.28516-0.28516c-1.429-0.25-3.1074 0.178-4.1074-1l0.0723-0.07227c0.286 0.072 0.74958-0.14231 0.89258 0.17969l2.8926-0.03711-0.0703-0.14258h0.39062c0.25-0.214 0.71485-0.21442 0.71485-0.60742-0.465-0.286-0.99832-0.14147-1.5703-0.35547 0.465-0.143 0.99874-0.14384 1.4277-0.46484 0.286-0.5-0.39216-0.53542-0.53516-0.85742 0.107-0.071 0.21442-0.03516 0.35742-0.03516 0.393 0.071 0.46416-0.28711 0.53516-0.53711-0.464-0.321-1.0364-0.53473-1.6074-0.67774zm3.7871 0.14453c-0.822 0.072-1.072 0.92731-1.25 1.5703 0.5 0.428 0.92858-0.28584 1.3926-0.46484-0.071-0.392 0.39242-0.99847-0.14258-1.1055zm-75.645 1.8555c-1.857 0.036-3.5718 0.03669-5.2148 0.67969 0 0.071 0.07337 0.10769 0.10938 0.17969 1.142 0.714 2.4265 0.92647 3.8555 1.3555 0.464 0.071 1.1443 0.32142 1.5723-0.14258 0.107-0.572 0.32242-0.99889 0.60742-1.4629 0.286-0.643-0.42969-0.60938-0.92969-0.60938zm4.6152 0.45508c-0.86822-0.02508-1.5206 0.05078-2.043 0.33203-1.678 0.893-1.2496 4.7144-1.1426 5.3574 0.143 0.929 0.39216 0.89173 1.2852 0.92773 1 0.071 2.3574-0.10726 4.3574-0.07227 1.286 0.036 3.5347 0.0015 4.4277 1.1445 1.535 2 0.643 4.0716 0.25 5.8926-0.25 1.214-0.71484 2.3559 0.78516 3.4629 1.393 0.608 1.9648-0.96247 1.9648-1.8555 0-2.607 0.17884-3.3574-1.2852-6.3574-0.571-1.178-2.8938-4.1793-2.4648-7.0723 0.071-0.536 0.17953-0.78516 0.39453-1.2852-3.0363-0.11188-5.0823-0.4328-6.5293-0.47461zm106.46 0.45117c-1.2321-0.02225-2.4894 0.11167-2.6504 0.45117l0.92774 2.6426c1.75-0.142 2.8218-1.6424 4.2148-2.6074-0.0535-0.2855-1.2601-0.46408-2.4922-0.48633zm-92.58 0.023438c-1.929 0-3.643 0.17969-4 0.17969 1.535 1.607-0.21484 3.0712 1.5352 3.0352 0.429 0.036 1.0718 0.17858 2.4648 0.14258zm85.832 0.42578c-2.0535 0.02748-4.5952 0.30172-4.9746 0.32422-1.143 0.036-0.53489 0.39258-0.46289 1.3926 0.178 2.571-0.96527 4.6791-1.8223 7.0371-0.714 1.964-1.7137 3.9273-1.9277 6.0703-0.072 0.786-0.0363 2.1797 0.92773 2.4297 1.107 0.285 1.357-1.4297 1.5-2.1797 0.357-1.893-0.35673-4.1077 0.32227-5.9297 0.428-1.107 1.4273-2.1417 2.5703-2.4277 1.321-0.322 2.7133-0.14258 4.0703-0.14258 0.75 0 2.5011 0.28669 3.0371-0.32031 0.572-0.643 0.75042-4.6797-0.64258-5.9297-0.30787-0.26775-1.3656-0.34071-2.5976-0.32422zm-13.297 0.10938c0 2.535-8.4e-4 5.1438 0.0352 7.7148 1.786-0.464 6.1797-1.8934 6.1797-2.6074-2.572 0.071-3.2157-0.822-2.9297-4.5-0.286 0.036-2.4992-0.39342-3.2852-0.60742zm37.941 0.5918c-0.43679-0.01203-0.88116 0.01652-1.332 0.08789-2.715 0.5-5.7498 2.1786-6.4648 5.1426-1.035 2.607 0.78516 5.0004 0.78516 7.6074 1.107-0.285 2.3937-0.14468 3.4297-0.17968 0.964 0.214 2.2126 0.14468 2.6406 1.1797 0.25-1.357 0.24985-2.8932 0.21485-4.2852-0.25 0.5-0.82074 0.96262-1.4277 0.89062-1.286-0.142-2.7151 0.03627-3.7871-0.67773-0.75-0.964-1.3909-2.1057-0.96289-3.4277 0.572-1.393 1.9632-2.3947 3.2852-2.9297 2.928-0.715 6.6438-0.89216 8.7148 1.7148 0.929 1.036 1.1793 2.4636 1.0723 3.8926-0.286 1.536-1.6804 2.8218-3.1094 3.2148 0 0.214-0.46247 0.10616-0.60547 0.28516 1.036 0.036 2.2135 0.28684 3.1055-0.0352 1.536-2.036 2.2514-5.0004 1.3594-7.6074-1.2189-2.7501-3.8604-4.7888-6.918-4.873zm-87.787 3.627c0.57905-0.06872 1.2502 0.38034 1.9199 0.24609-0.786 0.071-1.6078 0.28516-2.4648 0.03516 0.1695-0.17875 0.35191-0.25834 0.54492-0.28125zm5.2402 0.81641c1.072 0.072 2.0727 0.07184 3.1797 0.21484v0.07227c-1.143 0.214-2.1801 0.14257-3.2871-0.10743zm10.607 0.64453c0.215 0.143 0.53669 0.14258 0.67969 0.39258-0.25 0.322-0.57226-0.10658-0.82226 0.10742-2.108 0.357-4.9646 0.107-7.1426 0l-0.57226-0.21484c2.572 0.071 5.1794-0.35616 7.8574-0.28516zm-72.246 0.25391c-0.10262-0.0045-0.18248 0.03083-0.14648 0.17383 2.357 1.214 2.2486 4.0013 2.3906 6.0723-0.178 0.5-0.03473 1.2856-0.67773 1.6426l-4.5723 0.5c-0.714-1.143-0.49847-2.6427-0.60547-3.9277 0-0.286 0.465-0.35827 0.5-0.57227-0.321-0.143-0.678 0.03627-1 0.07227-0.607 0.142-1.3934-0.10911-1.8574 0.21289 1.179 0.143 0.78489 1.5373 0.96289 2.3223-0.035 0.715 0.53669 1.5718-0.07031 2.2148-1.321 0.25-2.6783 0.428-4.0703 0.5-0.215-0.072-0.32353-0.286-0.39453-0.5-0.107-2.143-0.46373-4.7507 1.3223-6.1797l-0.21485-0.10743-0.035156 0.10742-2.3926 0.14258c0.036 3.25 0.10531 6.2148 0.57031 9.4648 0.071 0.322 0 0.96358 0.5 0.89258-0.036-0.393-0.03431-0.82016 0.42969-1.0352 1.429-0.25 2.9288-0.57184 4.4648-0.71484 0.535-0.036 1.25-0.10631 1.75-0.32031 2.071 0 3.8559-0.71569 5.9629-0.67969 0.536 0.214 0.49958 0.89258 0.89258 1.1426l0.10742-0.35742c-0.607-3-0.179-6.3207-0.75-9.4277l-2.7852-1.5723c-0.0535-0.018-0.17862-0.06191-0.28125-0.06641zm21.174 0.96094c-1.036-1e-6 -5.2507-6.88e-4 -6.1797 0.07031-1.5 0.071-1.9277 0.78684-1.9277 1.9648 0.714 30.786 25.893 55.143 56.857 55.143 30.714 0 55.713-24.144 56.82-54.572 0-0.643-0.42773-1.3205-1.4277-1.3555-1.036 0-6.0356-2.66e-4 -6.8926-0.07227-1-0.071-1.0353 1.5707-1.0703 2.1777-1.643 24.75-22.251 44.5-47.43 44.5-25.607 0-46.464-20.248-47.5-45.605 0-2-0.321-2.25-1.25-2.25zm43.965 2.1055c-0.321 0.214-0.17758 0.57269 0.10742 0.67969 1.75 0.607 3.8218 0.57184 5.7148 0.46484-0.143-0.286-0.67884-0.17884-0.96484-0.21484-0.178-0.357 0.57158-0.535 0.64258-0.75-0.535 0-1.2502-0.32184-1.7852 0.03516-1.215-0.143-2.4648-0.14384-3.7148-0.21484zm-47.637 0.53906c0.34244 0.03975 0.70219 0.32656 0.99219 0.46094a1.772 1.772 0 0 1 0.17969 1.2852c-0.214 0.429-0.67942 0.42884-1.1074 0.46485-0.357 0-0.67858-0.24832-0.89258-0.57032a1.501 1.501 0 0 1 0.25-1.3574c0.174-0.24112 0.37266-0.30705 0.57812-0.2832zm104.39 0.31836c0.393-0.036 0.74985 0.07142 0.96485 0.35742 0.071 0.321 0.17689 0.857-0.28711 1-0.393 0.071-1.0356 0.21442-1.1426-0.39258-0.071-0.428 0.0718-0.92884 0.46484-0.96484zm-54.463 1.1777-0.28711 0.21484c0.429 1.25-0.24958 2.2858-0.89258 3.2148 1.036 0.679 2.3937 0.78684 3.6797 0.71484 0.857-0.107 1.8559-0.0352 2.4629-0.53515-0.857 0-1.643 1.5e-4 -2.5-0.21485 0.393-0.678 1.1794-0.14315 1.6074-0.53515-0.428 0-1.071 0.10715-1.5-0.21485 0.215-0.393 0.75026-0.17953 1.0723-0.39453-0.286-0.535-1.0724-0.31989-1.6074-0.46289-0.107 0-0.17969-0.10673-0.17969-0.17773 0.607-0.143 1.1441-0.35938 1.7871-0.35938 0.143-0.142 0.10589-0.25015-0.03711-0.28515l-1.3555-0.17774-0.17969-0.17773 0.5-0.32227c-0.785-0.286-1.7133-0.17911-2.5703-0.28711zm51.783 2.2871c0.357 0.072 0.85742-8.4e-4 1.1074 0.28516-0.714 0.25-1.393 1-1.5 1.75 0.071 0.393 0.10811 0.85811 0.53711 1.0371 1.821-0.108 2.2125-3.358 4.3555-2.5 0.821 0.607 1.1445 1.6056 0.89453 2.6406-0.072 0.786-0.71569 1.4305-1.1797 1.8945l-0.75-0.21484c0.893-0.571 1.5367-1.4996 1.4297-2.6426-0.108-0.321-0.42969-0.571-0.67969-0.75-2.071 0.179-2.4632 3.8224-4.7852 2.1074-0.535-0.321-0.35868-1.1432-0.42968-1.7852 0.143-0.679 0.571-1.2863 1-1.8223zm17.035 0.57031c-0.142 1.357-0.39047 2.928-0.60547 4.25 0.322-0.25 0.42816-0.57142 0.78516-0.85742 1.5-0.142 2.7148 1.0707 3.9648 1.9277l-0.71484 3.7148c-0.357 0.715-0.10658 1.822-0.89258 2.25l-3.9277 0.64258c-0.608 0-0.35785-0.74958-0.71485-0.89258-0.321 0.857-0.393 1.857-0.75 2.75-0.107 0.357-0.53542 0.67927-0.35742 1.0723l0.60742-0.46485a279.08 279.08 0 0 1 10.035-1.75c2.25-0.392 4.7132-0.75084 6.7852-1.2148-0.179-0.857-0.71332-1.607-1.3203-2.25-3.071-2.036-6.5714-4.0699-9.8574-6.2129-0.928-1.036-3.1083-1.0728-2.8223-2.9648zm-121.11 0.32227 0.67773 0.53516c2.036 0.857 4.2856 1.2153 6.1426 2.3223l-0.07031 0.21289c-1.678 1.75-3.6438 2.9665-4.7148 4.8945-0.214 0-0.42984-0.28626-0.46484-0.57226-0.107-0.536-0.21331-1.1434-0.32031-1.6074 0.393 0.107 0.99831-0.107 1.3203-0.5 0.535-0.5-0.03431-1.2496-0.07031-1.8926-0.321-0.607-0.03627-1.6074-0.82227-1.8574-0.322 0-0.60658-0.32047-0.89258-0.10547-0.286 0.107-0.10658 0.42689-0.39258 0.46289-0.428-0.322-0.32058-1.3216-0.39258-1.8926zm49.605 1.0352s-2.571 0.28626-3.25 2.3223c3.143 1.75 7.1793 1.6434 10.822 1.3574 0.821-0.178 1.7496-0.071 2.3926-0.5-0.643-0.214-1.6422-2e-3 -2.2852-0.39453 1.143-0.142 3.5702-0.53473 3.7852-1.1777 0 0-2.4646 0.82226-3.6426 0.0723 1.821-0.25 2.3938-0.64453 3.2148-1.1445-0.107-0.607-0.78573-0.21331-1.1777-0.32031-2.929 1.714-7.0014 1.2132-9.8594-0.21484zm-46.285 1.2148c-0.215 0.643 0.03669 1.4644 0.42969 1.8574 0.465-0.321 1.1068-0.82142 1.2148-1.3574-0.465-0.25-1.0375-0.464-1.6445-0.5zm-14.428 2.25c-0.107 0.179-0.03711 0.57184-0.28711 0.71484-4.178 1-8.1766 2.072-12.391 3-0.358 0-0.28584-0.60853-0.71484-0.39453 0.393 1.215 0.28473 2.7503 0.92773 3.8223 0.5-0.143 0.143-0.85616 0.75-1.0352l3.5723-0.89258c0.322-0.178 0.71331 0.0356 0.82031 0.39258 0.464 2 1.3225 3.8557 1.6445 5.9277-0.572 0.535-1.3583 0.67953-2.0723 0.89453-1.071 0.25-2.1438 0.92773-3.2148 0.67773 0.357 1.143 0.78727 2.2503 1.3223 3.3223h0.17773c-0.143-0.393 0.17774-0.68053 0.42773-0.89453 3.679-1.393 7.3595-2.8913 11.145-4.0703 0.5-0.285 0.96373 0.10685 1.4277 0.21485-0.143-0.679-0.60589-1.2498-0.71289-1.9648-0.215-0.535-0.25138-1.2515-0.60938-1.6445-0.178 0.358-0.071 0.78711-0.5 1.0371-1.892 0.643-3.7126 1.3919-5.6406 1.9629l-0.28711-0.28515a61.442 61.442 0 0 1-1.6426-5.8555l0.5-0.5 5.3203-1.25c0.5-0.108 0.60869 0.64062 0.92969 0.64062 0.036-1.285-0.64384-2.4642-0.71484-3.7852zm119.79 0.35742c0.143 0.75-4.2e-4 1.7127-0.35742 2.4277-0.179-0.679-1.0703-0.78585-1.5703-0.46485-0.5 0.858-0.78668 1.8594-0.92968 2.8594 0.393 0.5 0.85784 1.0699 1.4648 0.96289 0.25 0.571-0.42942 1.3207-0.60742 1.9277-0.393-1.892-2.4644-2.9277-3.6074-4.4277-0.429-0.179-0.74847-0.67858-0.85547-1.1426 2.071-0.643 4.1765-0.78531 6.1055-1.8203zm18.107 1.1406c0.643 0.429 1.393 0.60853 2 1.1445 0.321 0 0.39369 0.35589 0.67969 0.46289 0.892 0.536 1.8199 1.107 2.7129 1.75v0.21484c-2.036 0.429-4.1419 0.82185-6.2129 0.96485l-0.17969-0.17969 0.78516-4zm-119.29 0.93164c0.357 0.75 0.60616 1.678 1.0352 2.5 0.321 1.142 0.89258 2.7137-0.10742 3.6777-0.822 0.429-1.5709-0.25084-2.2129-0.46484-1 1.25-1.6428 2.9651-0.96484 4.5371-0.571-0.965-1.0367-2.3587-0.67969-3.6797 0.035-1.071 1.7144-1.8578 0.60742-2.9648-0.107-0.357-0.50026-0.57158-0.82227-0.39258-0.535 0.25-1.392 0.28726-1.5 1.0723-0.25-0.643-0.64216-1.3574-0.78516-2.1074 0.5 0.214 1.1445 0.28627 1.6445 0.0723 1.142-0.53603 2.4633-0.75072 3.5703-1.4297 0.143-0.25 0.14384-0.53531 0.21484-0.82031zm97.965 0.35547c-0.572 0.178-1.2164 0.10715-1.6094 0.53515 0.286 0.465 0.78711 0.93053 1.2871 1.1445 0.322-0.393 0.28474-0.89342 0.42774-1.3574zm-98.098 1.8789c-0.06629 3e-3 -0.13973 0.0195-0.22461 0.0508-0.5 0.143-1.1427 0.322-1.4277 0.75 0.285 0.715 0.39216 1.4992 1.0352 2.0352 0.429 0.25 0.893-0.071 1.25-0.25 0.357-0.464 0.03516-1.0706 0.03516-1.6426-0.15662-0.34387-0.20394-0.96191-0.66797-0.94336zm93.633 0.3711c0.286 0.071 0.57116 0.14342 0.78516 0.35742-0.464 0.464-0.821 1.1434-1 1.8574 0.964 1.25 2.5364 1.4636 3.8574 2.1426 0.5 0 1.1059 0.32184 1.4629-0.28516 0.036 0.893-0.64062 1.6422-0.89062 2.5352-0.179-0.036-0.10785-0.39327-0.21485-0.57227-1.428-1.035-2.928-1.7142-4.5-2.2852-0.393 0.035-0.643 0.42815-0.75 0.78515 0 0.393-0.21568 0.64411-0.17968 1.0371l-0.89258-0.39258c1.036-1.571 1.5723-3.4657 2.3223-5.1797zm-90.631 5.3438c0.201 4e-3 0.4167 0.0317 0.5957 0.0137 0.892 1.75 1.9277 3.4636 2.9277 5.1426-0.25 0.178-0.39342 0.35826-0.60742 0.57226-0.357-0.678-0.78531-1.4644-1.3203-2.1074-1.5 0.321-2.7148 1.2864-3.9648 2.1074-0.143 0.322-0.71569 0.53489-0.42969 0.96289-0.536-0.535-0.78558-1.321-1.1426-2 0.75 0.143 1.4284-0.35673 2.1074-0.67773 0.821-0.679 1.9294-0.96442 2.6074-1.8574-0.25-0.75-0.57211-1.4642-1.2871-2.0352 0.125-0.107 0.31267-0.12559 0.51367-0.12109zm107.31 0.51367c-0.214-0.036-0.24916 0.21526-0.28516 0.32226-0.25 0.893-0.89273 1.7142-0.92773 2.5352 0.214-0.286 0.57073-0.53642 0.92773-0.60742l3.4277 1.2871c1.75 1.071 4.0002 1.1409 5.5352 2.4629l-0.17773 0.17773c-3.322 1.108-6.7489 2.3591-9.9629 3.2871l0.0352 0.0352c-1.357 0.357-2.643 0.89384-4 1.2148-0.321 0.143-0.64342 0.46442-0.60742 0.85742a38.881 38.881 0 0 0 4.25 2.0703l-0.0371 0.0723c2.679 1.357 5.5363 2.357 8.0723 4 0.25 0.393 0 0.857 0 1.25h0.28711c0.464-1.143 1.3572-2.1081 1.7852-3.2871-0.428 0-0.5 0.67927-1 0.57227-1.75-0.572-3.3218-1.5-4.9648-2.25-1.107-0.607-2.5007-0.96274-3.4297-1.9277l0.10938-0.10742c4.321-1.678 8.3922-2.7871 12.785-4.2871 1.179-1.035 1.3928-2.642 1.9648-4l-0.10938-0.10547c-0.678 0.893-1.5712 1.7492-2.7852 1.5352-2.857-1.143-5.7142-2.2147-8.5352-3.4297-0.75-0.678-2.3214-0.39173-2.3574-1.6777zm-19.428 0.5 0.28516 0.46484c1.536 0.893 3.0717 1.7136 4.6797 2.3926 0.25-0.071 0.464-0.17858 0.75-0.14258-0.286 0.5-0.39438 1.1073-0.85938 1.5723-1.392-1.286-3.2486-1.8944-4.8906-2.8594l-0.67969 0.0723c0.107-0.572 0.42984-1.036 0.71484-1.5zm-0.95898 3.4883c0.24976 6e-3 0.51983 0.0645 0.81445 0.18945l0.21485 0.35938c0.357 0.642-0.21485 1.607 0.53515 2 1.393 0.357 2.8587-0.10953 3.9297-0.64453-0.964 1.678-3.1062 1.7502-4.7852 1.7852-0.285 0.322-0.82115 0.64369-0.78515 1.1797 0.678 0.321 1.5343 1.6423 2.5703 1.0703-0.393 0.608-0.786 1.179-1.25 1.75-0.143-1.25-1.6066-1.642-2.3926-2.5l-1.8926-1.3555c-0.321 0.036-0.42968-0.0367-0.67968 0.0703v-0.21485c1.2189-1.1559 1.9724-3.7328 3.7207-3.6894zm-103.36 0.68945c-0.25 0.143-0.10658 0.465-0.14258 0.75-3.357 1.858-6.8577 3.429-10.18 5.25-0.25 0.143-0.74973 0.46485-0.92773-0.0352-0.357-1.322-2.0724-2.536-1.1074-4-0.715 0.107-1.4275 0.57142-2.1055 0.85742l-0.07227 0.21289c1.893 3.714 3.786 7.4294 5.75 11.107 0.822-0.25 1.6422-0.71358 2.2852-1.1426-0.357 0.108-0.60573-0.14284-0.92773-0.21484-1-1.178-1.4297-2.5706-2.1797-3.8926l0.17969-0.35742c3.465-1.643 6.8553-3.6067 10.32-5.1777 0.357 0.071 0.571 0.78516 1 0.53516v-0.28516c-0.715-1.143-1.2496-2.3924-1.8926-3.6074zm102.64 0.32227c-0.715 0.428-1.3566 1.2151-1.6426 2.0371 0.321 0.607 1.0706 0.99862 1.6426 1.1406 0.678-0.678 1.4284-1.5703 1.1074-2.5703-0.214-0.357-0.64342-0.67942-1.1074-0.60742zm-81.75 1.0723c1.25 1.215 2.1445 2.8557 3.3945 4.1777-0.072 0.464-0.64453 0.60742-0.89453 0.85742 0.25-1.036-0.99873-1.9996-1.6777-2.8926-0.643-0.536-1.1066 0.42858-1.6426 0.64258-0.107 0.036-0.07142 0.17831-0.10742 0.32031 0.464 0.465 0.71289 1.393 1.4629 1.5-0.214 0.322-0.57073 0.50069-0.92773 0.67969-0.072-0.643-0.60726-1.2148-1.0723-1.7148-0.678-0.036-1.1405 0.64426-1.6055 1.0723-0.035 1.25 1.2856 2.0356 2.1426 2.8926l0.28516 0.0352-0.03516 0.0352c0.214 0.072 0.39342 0.18053 0.60742 0.14453-0.214 0.107-0.60853 0.17858-0.89453 0.14258-0.214 0.107-0.46289 0.10658-0.71289 0.14258-1.036-1.571-2.3218-2.7868-3.2148-4.4648 0.786 0.393 1.5718-0.39216 2.2148-0.78516 0.893-0.643 1.8557-1.4283 2.6777-2.3203zm77.285 3.5703a1.853 1.853 0 0 1 1.0723 0.78515c-0.714-0.25-1.3223 0.18053-1.8223 0.64453-0.428 0.357-0.678 0.786-0.75 1.25 0.322 0.536 0.93053 1.1775 1.3945 1.3555 0.286-0.321 1.1055-0.74889 1.1055-1.4629a2.025 2.025 0 0 1 0.89453 0.75c-0.607 0.179-1.0002 0.60658-1.2852 1.1426-0.143 0.714 0.78389 1.107 1.2129 1.5 1-0.036 1.3943-1.1438 2.0723-1.7148 0.179-0.322 0.24847-0.74958 0.35547-1.1426 1.358 1.571-1.1413 2.2496-1.5703 3.3926-0.536 0.428-0.82058 0.857-1.3926 1.25 0.179-1.215-1.1434-1.6428-1.6074-2.4648-0.964-0.714-1.5007-1.8212-2.6797-2.0352zm-72.105 3.2852c1.572-0.142 2.4985 1.4304 3.1055 2.6094 0.286 0.75-0.64173 0.85715-0.92773 1.2852 0.107-0.678 0.28558-1.5358-0.10742-2.2148-0.286-0.464-0.78516-0.71442-1.2852-0.85742-0.286 0.107-0.60784 0.21526-0.71484 0.57226-0.107 1.536 1.1782 3.5718-0.46484 4.7148-1.464 0.571-2.4993-0.67969-3.3203-1.6797l-0.39258-1.3574c0.322-0.25 0.643-0.53474 1-0.67774-0.536 0.715-0.03711 1.5718 0.21289 2.2148 0.5 0.464 0.96484 0.96373 1.7148 0.67773 1.643-1.536-1.4633-4.2151 1.1797-5.2871zm68.143 0.92969c-0.071 2.464 1.1073 4.7492 1.3223 7.2852-2-0.786-3.822-1.893-5.75-2.75l-0.89453 0.0352c0.5-0.428 1.1795-1.1769 1.8945-1.4629 0 0.179-0.25 0.42927 0 0.57227 1.142 0.607 2.2835 1.5002 3.6055 1.7852 0.285-0.428-0.0705-1-0.10547-1.5-0.25-0.964-0.32227-2.2515-1.3223-2.6445 0.179-0.464 0.822-0.89131 1.25-1.3203zm-63.715 5.1074c0.393-0.036 0.75 0.0724 1 0.35742 0.286 0.286 0.21527 0.85574 0.07227 1.1777-0.214 0.321-0.64427 0.39342-1.0723 0.35742-0.357-0.214-0.53642-0.607-0.60742-1-0.036-0.357 0.21442-0.82058 0.60742-0.89258zm6.8047 1.6562c0.17292 9e-3 0.34808 0.0299 0.51758 0.0566 0.929 0.25 1.7487 1.1083 2.4277 1.8223-0.143 0.5-0.42789 1.0004-0.71289 1.3574 0.071-1.107-0.39327-1.9648-1.3223-2.4648-0.286-0.179-0.75111-0.179-1.0371 0-0.392 0.214-0.32073 0.75126-0.17773 1.0723 0.714 1.214 1.8207 2.464 1.4277 4-0.5 0.822-1.6067 0.64216-2.4277 0.53516-1-0.322-2.0003-1.2864-2.3223-2.3574 0.108-0.357 0.39284-0.679 0.71484-1 0 1.107 0.50127 2.2508 1.5723 2.7148 0.25 0.179 0.714 0.17984 1-0.0352 0.572-0.393 0.28489-1.0714 0.21289-1.6074-0.821-1.036-1.75-2.2513-1.25-3.5723 0.34875-0.45525 0.85819-0.54802 1.377-0.52149zm51.16 0.37891c0.322 0.071 0.75 0.0718 1 0.46484 0.072 0.464-0.10658 0.78627-0.39258 1.0723-0.25 0.178-0.64468 0.17815-0.92968 0.0352-0.429-0.25-0.35616-0.78668-0.28516-1.1797 0.214-0.072 0.32142-0.42858 0.60742-0.39258zm-5.7871 0.96484c1.5 0.893 3.0367 2.1433 4.6797 3.0723 0.393 0.321 0.85658 0.53347 1.3926 0.35547-0.536 0.5-1.2132 1.1447-2.0352 1.1797l-0.10742 0.17774c0.25-0.5-0.10616-0.99889-0.53516-1.2129-1 0.392-2.2155 0.71415-2.8945 1.5352-0.107 0.465 0.179 0.89132 0.5 1.0703-0.535 0.214-1.0335 0.57268-1.6055 0.67968l0.32032-0.57226c0.143-2.286-0.10685-4.2132 0.28515-6.2852zm-3.9277 1.4629c-0.679 1.322 0.42884 2.6094 0.71484 3.8594 0.393 0.678 0.46289 1.8572 1.4629 2.0352-0.607 0.393-1.357 0.60616-2 1.0352-0.107-0.143 0.14285-0.321 0.21485-0.5-0.607-1.821-1.0352-3.5352-1.7852-5.2852l-0.5-0.39453a4.9 4.9 0 0 1 1.8926-0.75zm4.5371 0.39453c-0.286 0.572-0.10953 1.1413-0.14453 1.8203 0.571 0.535 1.2502-0.42774 1.7852-0.67774-0.357-0.536-0.99862-1.0356-1.6406-1.1426zm-38.914 0.16993c1.2022 0.0152 2.3942 0.59639 3.3047 1.4004-0.107 0.357-0.21373 0.71415-0.42773 1.0352-0.179-0.964-1.1782-1.6072-2.0352-1.7852-0.964-0.215-1.7864 0.535-2.3574 1.25-0.357 0.643-0.57031 1.5363-0.32031 2.3223a2.464 2.464 0 0 0 1.6406 1.6074c0.822 0.072 1.6788-0.178 2.2148-1h0.17969c-0.035 0.572-0.32142 1.107-0.60742 1.5-0.928 0.393-1.9996 0.21347-2.8926-0.14453-0.928-0.642-1.6072-1.5707-1.7852-2.6777-0.143-1.5 0.74862-2.6433 1.8906-3.3223 0.393-0.13375 0.79459-0.19062 1.1953-0.18554zm31.234 0.40039c0.286 0.321 0.25069 0.78668 0.42969 1.1797-0.643-0.464-1.5003-0.14315-2.0723 0.21485-0.357 0.357-0.036 0.89131 0 1.3203 0.322 1.214 0.39189 2.5356 0.96289 3.6426 0.108 0.25 0.39369 0.42842 0.67969 0.35742-0.071 0.321-0.5 0.21331-0.75 0.32031-0.571 0-1.0004 0.24985-1.6074 0.21485 0.428-0.25 0.64258-0.92774 0.39258-1.4277l-0.89258-3.6777c-0.393-0.5-0.964-0.24985-1.5-0.21485-0.393 0.107-0.893 0.21374-1 0.67774-0.286-0.322-0.14342-0.74958-0.10742-1.1426 1.643-0.357 3.2865-0.786 4.8945-1.25a1.578 1.578 0 0 1 0.57031-0.21484zm-25.25 1.2148 2.1074 0.39258c-0.178 0.214-0.64274 0.46511-0.67773 0.78711-0.393 1.642-0.85953 3.2129-0.89453 4.9629l0.5 0.46484c-0.643-0.036-1.4985-0.21358-2.3555-0.39258 0.928-0.75 0.92816-2.0725 1.2852-3.1445 0.072-1 0.78516-2.1773 0.03516-3.0703zm18.715 0.67969c-0.357 0.25-0.14315 0.74931-0.28515 1.0703 0.142 1.893 0.35547 3.4633 0.35547 5.3203v0.0723h-0.35547c-1.429-1.607-2.9657-3.1426-4.4297-4.6426l-0.28516 0.28516c0.25 1.607-0.64427 3.5352 0.92773 4.5352-0.572 0-1.4286 0.18011-2.1426 0.0371 0.321-0.178 0.57169-0.393 0.67969-0.75-1e-6 -1.536 1.56e-4 -3.1434-0.21484-4.6074-0.25-0.536-0.85869-0.32142-1.1797-0.60742 1.143-0.036 1.8214-0.46427 2.8574-0.0723 1 1.036 1.893 2.1793 3 3.0723 0.214 0 0.32211-0.24889 0.28711-0.46289-0.143-1 0.17815-2.1804-0.71485-2.8594l-0.21484-0.10543c0.571-0.107 1.1078-0.28515 1.7148-0.28515zm-14.072 0.0352c1.607 0.215 3.1776 0.49985 4.8926 0.46485l-0.035156 0.0351c0.393-0.071 0.32169 0.35658 0.42969 0.64258-0.143 0.214 0.03431 0.53474-0.17969 0.67774-0.536-1.357-2.2856-0.82116-3.3926-1.0352-0.607 0.429-0.42773 1.357-0.42773 2 0.785 0.214 1.8555 0.57142 2.6055 0.10742 0.143 0.464-0.03431 0.89327-0.07031 1.3223-0.678-0.715-1.6072-0.57227-2.5352-0.57227-0.322 0.536-0.39369 1.4279-0.17969 1.9629l0.35742 0.28711c1.357 0.25 3.0724 0.64174 4.1074-0.57226-0.035 0.428-0.53542 0.964-0.85742 1.5-1.714-0.036-3.6427-0.35658-5.4277-0.39258 0.428-0.179 0.89047-0.75027 0.85547-1.3223 0.035-1.678 0.57184-3.1782 0.21484-4.7852zm25.572 14.57a2.947 2.947 0 0 1-1.1445 0.71479c-1.714-0.036-3.5696-0.0364-4.8906 0.89258-0.715 0.464-1.3227 1.2864-2.1797 1.3574-0.286 0.857-0.35742 1.8214-0.60742 2.6074 0.428-0.964 1.3574-1.6427 2.3574-1.9277 1.571-0.25 3.107-0.322 4.5-1 0.429 0.535-0.28684 1.1417-0.46484 1.6777-0.643 2.214-1.679 4.322-1.75 6.75 0.071 1.572 0.17968 3.1417 1.4297 4.1777 0.857-0.215 1.4985-0.96458 2.1055-1.6426-1-0.214-0.81947-1.3934-1.1055-2.1074-0.428-3.822 0.322-8.072 1.75-11.5zm-37.072 0.57226c-1.214 0.643-2.3573 1.429-3.5723 2v0.14253c0.25-0.036 0.60938 0.0352 0.85938 0.28516-0.858 3.357-1.6087 6.7502-2.6797 10.035-0.143 0.536-0.71442 0.50027-1.1074 0.57227v0.10742c1.214 0.464 2.6074 0.67984 3.8574 0.96484-0.143-0.393-0.75084-0.46484-0.71484-0.96484l2.9648-11c0.429-0.536 0.321-1.3562 0.5-2.0352zm9.8652 1.6035c-1.5896 1e-3 -3.1406 0.60937-4.0781 1.8594-0.358 0.858-0.39369 2.1793 0.32031 2.8223 0.393 0.571 1.0353 1.0718 1.3203 1.7148-1.392 0.714-3.1777 0.74889-4.1777 2.2129-0.536 1.143-0.42858 2.6788 0.35742 3.7148 0.571 0.535 1.036 1.1074 1.75 1.3574 1.643 1.143 4.3566 1.8566 6.3926 1.1426 1-0.429 1.9653-1.25 2.3223-2.25 0.465-2.179-1.1085-3.8917-2.6445-5.1777 0.143-0.607 0.85827-0.46358 1.3223-0.64258 1-0.643 2.5706-1.2513 2.3926-2.8223 0.107-1.5-1.429-2.6422-2.5-3.2852-0.85725-0.42862-1.8236-0.64727-2.7773-0.64648zm12.998 0.34375c-0.106-0.0335-0.26486 0.0149-0.50586 0.19336-0.571 0.714-1.6077 1.3934-2.1797 2.1074 0.358 0.107 0.67884 0.21511 0.96484 0.53711 0.464 3.178 0.39384 6.7492 0.71484 10.035l-0.10742 0.71485c-0.107 0.321-0.46426 0.60615-0.82227 0.53515v0.17774c1.393-0.036 2.8234-0.10631 4.1094-0.32031-0.393 0.071-0.71485-0.25111-0.96485-0.53711-0.285-4-0.60742-8.1777-0.85742-12.178-0.1875-0.321-0.0336-1.1651-0.35156-1.2656zm-12.609 0.50586c1.0615-4e-3 1.902 0.69776 2.4961 1.5098 0.393 0.608 0.46511 1.3594 0.28711 2.1094-0.393 1.035-1.4998 1.5703-2.4648 1.8203-1.214 0.214-2.0725-1.0007-2.6445-1.9297-0.214-0.75-0.35562-1.6773 0.10938-2.3203 0.428-0.571 1-1.1066 1.75-1.1426 0.16062-0.0312 0.31515-0.0462 0.4668-0.0469zm-2.0391 6.4746 0.67773 0.21484c1.285 1.107 2.857 2.357 2.75 4.25-0.072 0.893-0.60573 1.7868-1.4277 2.2148-1.428 0.357-2.6074-0.17953-3.8574-0.64453-1.071-0.964-1.2132-2.4282-0.78516-3.7852 0.393-1.25 1.5356-1.822 2.6426-2.25z" fill="#ffcb05"/>
 </g>
</svg>
